<svg width="48" height="48" viewBox="0 0 48 48" fill="none" xmlns="http://www.w3.org/2000/svg">
<mask id="mask0_80_132" style="mask-type:alpha" maskUnits="userSpaceOnUse" x="0" y="0" width="48" height="48">
<rect width="48" height="48" fill="#D9D9D9"/>
</mask>
<g mask="url(#mask0_80_132)">
<path d="M8 44C6.9 44 5.95833 43.6083 5.175 42.825C4.39167 42.0417 4 41.1 4 40V16C4 14.9 4.39167 13.9583 5.175 13.175C5.95833 12.3917 6.9 12 8 12H16L24 4L32 12H40C41.1 12 42.0417 12.3917 42.825 13.175C43.6083 13.9583 44 14.9 44 16V40C44 41.1 43.6083 42.0417 42.825 42.825C42.0417 43.6083 41.1 44 40 44H8ZM8 40H40V16H8V40ZM12 36H36L28.5 26L22.5 34L18 28L12 36ZM37.125 25.125C37.7083 24.5417 38 23.8333 38 23C38 22.1667 37.7083 21.4583 37.125 20.875C36.5417 20.2917 35.8333 20 35 20C34.1667 20 33.4583 20.2917 32.875 20.875C32.2917 21.4583 32 22.1667 32 23C32 23.8333 32.2917 24.5417 32.875 25.125C33.4583 25.7083 34.1667 26 35 26C35.8333 26 36.5417 25.7083 37.125 25.125ZM20.2 12H27.8L24 8.2L20.2 12Z" fill="#7C7D7F"/>
</g>
</svg>
