<svg width="1740" height="1740" viewBox="0 0 1740 1740" fill="none" xmlns="http://www.w3.org/2000/svg">
<rect width="1740" height="1740" fill="transparent"/>
<path d="M870 0C1111.21 0 1329.5 98.1672 1487.08 256.727L1251.59 492.221C1154.31 394.209 1019.48 333.516 870.477 333.516C573.921 333.516 333.516 573.921 333.516 870.477C333.516 1167.03 573.921 1407.44 870.477 1407.44C1000.37 1407.44 1119.5 1361.31 1212.36 1284.54L1448.04 1520.22C1294.35 1656.94 1091.88 1740 870 1740C389.512 1740 0 1350.49 0 870C0 389.512 389.512 0 870 0ZM1698.27 1136.96C1652.36 1279.53 1570.65 1406.04 1463.74 1505.9L1228.5 1270.66C1294.65 1211.44 1346.03 1136.06 1376.43 1050.73L1698.27 1136.96ZM1719.24 680.243C1732.83 741.325 1740 804.825 1740 870C1740 955.68 1727.61 1038.47 1704.54 1116.67L1383.17 1030.56C1398.94 979.998 1407.44 926.23 1407.44 870.477C1407.44 834.396 1403.88 799.147 1397.09 765.061L1719.24 680.243ZM1501.86 271.962C1603.23 379.03 1677.68 511.846 1714.38 659.576L1392.53 744.312C1370.9 654.49 1326.69 573.467 1266.24 507.58L1501.86 271.962Z" fill="#6350A3"/>
</svg>
