<svg width="48" height="48" viewBox="0 0 48 48" fill="none" xmlns="http://www.w3.org/2000/svg">
<mask id="mask0_80_123" style="mask-type:alpha" maskUnits="userSpaceOnUse" x="0" y="0" width="48" height="48">
<rect width="48" height="48" fill="#D9D9D9"/>
</mask>
<g mask="url(#mask0_80_123)">
<path d="M19 30C20.4 30 21.5833 29.5167 22.55 28.55L30.55 20.55C31.5167 19.5833 32 18.4 32 17C32 15.6 31.5167 14.4167 30.55 13.45C29.5833 12.4833 28.4 12 27 12C25.6 12 24.4167 12.4833 23.45 13.45C22.2167 13.0167 21 12.9167 19.8 13.15C18.6 13.3833 17.5833 13.9167 16.75 14.75C15.9167 15.5833 15.3833 16.6 15.15 17.8C14.9167 19 15.0167 20.2167 15.45 21.45C14.4833 22.4167 14 23.6 14 25C14 26.4 14.4833 27.5833 15.45 28.55C16.4167 29.5167 17.6 30 19 30ZM12 44V35.4C10.1 33.6667 8.625 31.6417 7.575 29.325C6.525 27.0083 6 24.5667 6 22C6 17 7.75 12.75 11.25 9.25C14.75 5.75 19 4 24 4C28.1667 4 31.8583 5.225 35.075 7.675C38.2917 10.125 40.3833 13.3167 41.35 17.25L43.95 27.5C44.1167 28.1333 44 28.7083 43.6 29.225C43.2 29.7417 42.6667 30 42 30H38V36C38 37.1 37.6083 38.0417 36.825 38.825C36.0417 39.6083 35.1 40 34 40H30V44H26V36H34V26H39.4L37.5 18.25C36.7333 15.2167 35.1 12.75 32.6 10.85C30.1 8.95 27.2333 8 24 8C20.1333 8 16.8333 9.35 14.1 12.05C11.3667 14.75 10 18.0333 10 21.9C10 23.9 10.4083 25.8 11.225 27.6C12.0417 29.4 13.2 31 14.7 32.4L16 33.6V44H12Z" fill="#7C7D7F"/>
</g>
</svg>
