<svg width="16" height="16" viewBox="0 0 16 16" fill="none" xmlns="http://www.w3.org/2000/svg">
<ellipse cx="6.8404" cy="6.60723" rx="3.16495" ry="0.408381" fill="#EEECEE"/>
<path d="M4.49219 5.3821C4.00724 5.3821 3.62438 5.39061 3.34362 5.40762C3.06711 5.42464 2.86292 5.47356 2.73105 5.55438C2.60343 5.63521 2.5226 5.77134 2.48857 5.96277C2.45454 6.14994 2.43753 6.41369 2.43753 6.754V9.08305C2.43753 9.38509 2.39073 9.64458 2.29714 9.86153C2.20356 10.0742 1.98235 10.1806 1.63352 10.1806C1.98235 10.1806 2.20356 10.2891 2.29714 10.506C2.39073 10.7187 2.43753 10.9761 2.43753 11.2781V13.6072C2.43753 13.9475 2.45454 14.2133 2.48857 14.4048C2.5226 14.5919 2.60343 14.7259 2.73105 14.8068C2.86292 14.8876 3.06711 14.9365 3.34362 14.9535C3.62438 14.9705 4.00724 14.9791 4.49219 14.9791V16C3.86261 16 3.33724 15.9745 2.9161 15.9234C2.49495 15.8766 2.15889 15.7767 1.90791 15.6235C1.66118 15.4746 1.48464 15.2492 1.37829 14.9472C1.27619 14.6451 1.22514 14.241 1.22514 13.7348V11.2972C1.22514 11.0931 1.20175 10.9484 1.15495 10.8633C1.11241 10.7783 1.00394 10.7293 0.829524 10.7166C0.659365 10.6996 0.382857 10.6911 0 10.6911V9.6701C0.382857 9.6701 0.659365 9.66159 0.829524 9.64458C1.00394 9.62756 1.11241 9.57864 1.15495 9.49782C1.20175 9.41274 1.22514 9.2681 1.22514 9.06391V6.62638C1.22514 6.12016 1.27619 5.71603 1.37829 5.414C1.48464 5.11197 1.66118 4.88651 1.90791 4.73762C2.15889 4.58448 2.49495 4.48451 2.9161 4.43772C3.33724 4.38667 3.86261 4.36115 4.49219 4.36115V5.3821Z" fill="#EEECEE"/>
<path fill-rule="evenodd" clip-rule="evenodd" d="M9.18857 4.36115C9.81816 4.36115 10.3435 4.38667 10.7647 4.43772C11.1858 4.48451 11.5219 4.58448 11.7729 4.73762C12.0196 4.88651 12.1961 5.11197 12.3025 5.414C12.4046 5.71603 12.4556 6.12016 12.4556 6.62638V7.21981H13.885C14.6744 7.21981 15.3143 7.85975 15.3143 8.64915V11.712C15.3143 12.5014 14.6744 13.1413 13.885 13.1413H12.4556V13.7348C12.4556 14.241 12.4046 14.6451 12.3025 14.9472C12.1961 15.2492 12.0196 15.4746 11.7729 15.6235C11.5219 15.7767 11.1858 15.8766 10.7647 15.9234C10.3435 15.9745 9.81816 16 9.18857 16V14.9791C9.67352 14.9791 10.0564 14.9705 10.3371 14.9535C10.6136 14.9365 10.8178 14.8876 10.9497 14.8068C11.0773 14.7259 11.1582 14.5919 11.1922 14.4048C11.2262 14.2133 11.2432 13.9475 11.2432 13.6072V11.2781C11.2432 10.9761 11.29 10.7187 11.3836 10.506C11.4772 10.2891 11.6984 10.1806 12.0472 10.1806C11.6984 10.1806 11.4772 10.0742 11.3836 9.86153C11.29 9.64458 11.2432 9.38509 11.2432 9.08305V6.754C11.2432 6.41369 11.2262 6.14994 11.1922 5.96277C11.1582 5.77134 11.0773 5.63521 10.9497 5.55438C10.8178 5.47356 10.6136 5.42464 10.3371 5.40762C10.0564 5.39061 9.67352 5.3821 9.18857 5.3821V4.36115ZM12.4556 9.06391C12.4556 9.2681 12.479 9.41274 12.5258 9.49782C12.5683 9.57864 12.6768 9.62756 12.8512 9.64458C13.0214 9.66159 13.2979 9.6701 13.6808 9.6701V10.6911C13.2979 10.6911 13.0214 10.6996 12.8512 10.7166C12.6768 10.7293 12.5683 10.7783 12.5258 10.8633C12.479 10.9484 12.4556 11.0931 12.4556 11.2972V11.9162H13.885C13.9977 11.9162 14.0891 11.8248 14.0891 11.712V8.64915C14.0891 8.53638 13.9977 8.44496 13.885 8.44496H12.4556V9.06391Z" fill="#EEECEE"/>
<path d="M6.31251 2.4C6.8924 3.31429 6.79575 4.22857 6.67494 4.57143C10.0577 3.2 6.91656 1.6 6.55413 1.14286C6.26419 0.777143 6.43332 0.228572 6.55413 0C6.07089 0.114286 5.58764 1.25714 6.31251 2.4Z" fill="#EEECEE"/>
</svg>
