<svg width="48" height="48" viewBox="0 0 48 48" fill="none" xmlns="http://www.w3.org/2000/svg">
<mask id="mask0_80_126" style="mask-type:alpha" maskUnits="userSpaceOnUse" x="0" y="0" width="48" height="48">
<rect width="48" height="48" fill="#D9D9D9"/>
</mask>
<g mask="url(#mask0_80_126)">
<path d="M10 8V20.05V20V40V8ZM14 28H21C21.3 27.2333 21.6667 26.5167 22.1 25.85C22.5333 25.1833 23.0333 24.5667 23.6 24H14V28ZM14 36H20.35C20.1833 35.3333 20.075 34.6667 20.025 34C19.975 33.3333 19.9833 32.6667 20.05 32H14V36ZM10 44C8.9 44 7.95833 43.6083 7.175 42.825C6.39167 42.0417 6 41.1 6 40V8C6 6.9 6.39167 5.95833 7.175 5.175C7.95833 4.39167 8.9 4 10 4H26L38 16V21C37.3667 20.7333 36.7167 20.525 36.05 20.375C35.3833 20.225 34.7 20.1167 34 20.05V18H24V8H10V40H22.05C22.5833 40.8 23.1833 41.5417 23.85 42.225C24.5167 42.9083 25.25 43.5 26.05 44H10ZM36.55 36.55C37.5167 35.5833 38 34.4 38 33C38 31.6 37.5167 30.4167 36.55 29.45C35.5833 28.4833 34.4 28 33 28C31.6 28 30.4167 28.4833 29.45 29.45C28.4833 30.4167 28 31.6 28 33C28 34.4 28.4833 35.5833 29.45 36.55C30.4167 37.5167 31.6 38 33 38C34.4 38 35.5833 37.5167 36.55 36.55ZM43.2 46L37.8 40.6C37.1 41.0667 36.3417 41.4167 35.525 41.65C34.7083 41.8833 33.8667 42 33 42C30.5 42 28.375 41.125 26.625 39.375C24.875 37.625 24 35.5 24 33C24 30.5 24.875 28.375 26.625 26.625C28.375 24.875 30.5 24 33 24C35.5 24 37.625 24.875 39.375 26.625C41.125 28.375 42 30.5 42 33C42 33.8667 41.8833 34.7083 41.65 35.525C41.4167 36.3417 41.0667 37.1 40.6 37.8L46 43.2L43.2 46Z" fill="#7C7D7F"/>
</g>
</svg>
