<svg width="67" height="70" viewBox="0 0 67 70" fill="none" xmlns="http://www.w3.org/2000/svg">
<ellipse cx="29.9267" cy="28.9067" rx="13.8467" ry="1.78667" fill="#7C7D7F"/>
<path d="M19.6533 23.5466C17.5317 23.5466 15.8567 23.5838 14.6283 23.6583C13.4186 23.7327 12.5253 23.9468 11.9483 24.3004C11.39 24.654 11.0364 25.2495 10.8875 26.087C10.7386 26.9059 10.6642 28.0598 10.6642 29.5487V39.7383C10.6642 41.0597 10.4594 42.195 10.05 43.1441C9.64055 44.0747 8.67278 44.54 7.14667 44.54C8.67278 44.54 9.64055 45.0145 10.05 45.9637C10.4594 46.8943 10.6642 48.0202 10.6642 49.3416V59.5312C10.6642 61.0201 10.7386 62.1833 10.8875 63.0208C11.0364 63.8397 11.39 64.4259 11.9483 64.7795C12.5253 65.1332 13.4186 65.3472 14.6283 65.4216C15.8567 65.4961 17.5317 65.5333 19.6533 65.5333V70C16.8989 70 14.6004 69.8883 12.7579 69.665C10.9154 69.4602 9.44514 69.0229 8.34708 68.3529C7.26764 67.7015 6.49528 66.7151 6.03 65.3937C5.58333 64.0723 5.36 62.3043 5.36 60.0895V49.4254C5.36 48.532 5.25764 47.8993 5.05292 47.527C4.86681 47.1548 4.39222 46.9408 3.62917 46.885C2.88472 46.8105 1.675 46.7733 0 46.7733V42.3066C1.675 42.3066 2.88472 42.2694 3.62917 42.195C4.39222 42.1205 4.86681 41.9065 5.05292 41.5529C5.25764 41.1807 5.36 40.5479 5.36 39.6545V28.9904C5.36 26.7757 5.58333 25.0076 6.03 23.6862C6.49528 22.3648 7.26764 21.3784 8.34708 20.727C9.44514 20.057 10.9154 19.6197 12.7579 19.415C14.6004 19.1916 16.8989 19.08 19.6533 19.08V23.5466Z" fill="#6350A3"/>
<path fill-rule="evenodd" clip-rule="evenodd" d="M40.2 19.08C42.9544 19.08 45.2529 19.1916 47.0954 19.415C48.9379 19.6197 50.4082 20.057 51.5062 20.727C52.5857 21.3784 53.3581 22.3648 53.8233 23.6862C54.27 25.0076 54.4933 26.7757 54.4933 28.9904V31.5866H60.7467C64.2003 31.5866 67 34.3863 67 37.84V51.24C67 54.6936 64.2003 57.4933 60.7467 57.4933H54.4933V60.0895C54.4933 62.3043 54.27 64.0723 53.8233 65.3937C53.3581 66.7151 52.5857 67.7015 51.5062 68.3529C50.4082 69.0229 48.9379 69.4602 47.0954 69.665C45.2529 69.8883 42.9544 70 40.2 70V65.5333C42.3217 65.5333 43.9967 65.4961 45.225 65.4216C46.4347 65.3472 47.3281 65.1332 47.905 64.7795C48.4633 64.4259 48.8169 63.8397 48.9658 63.0208C49.1147 62.1833 49.1892 61.0201 49.1892 59.5312V49.3416C49.1892 48.0202 49.3939 46.8943 49.8033 45.9637C50.2128 45.0145 51.1806 44.54 52.7067 44.54C51.1806 44.54 50.2128 44.0747 49.8033 43.1441C49.3939 42.195 49.1892 41.0597 49.1892 39.7383V29.5487C49.1892 28.0598 49.1147 26.9059 48.9658 26.087C48.8169 25.2495 48.4633 24.654 47.905 24.3004C47.3281 23.9468 46.4347 23.7327 45.225 23.6583C43.9967 23.5838 42.3217 23.5466 40.2 23.5466V19.08ZM54.4933 39.6545C54.4933 40.5479 54.5957 41.1807 54.8004 41.5529C54.9865 41.9065 55.4611 42.1205 56.2242 42.195C56.9686 42.2694 58.1783 42.3066 59.8533 42.3066V46.7733C58.1783 46.7733 56.9686 46.8105 56.2242 46.885C55.4611 46.9408 54.9865 47.1548 54.8004 47.527C54.5957 47.8993 54.4933 48.532 54.4933 49.4254V52.1333H60.7467C61.24 52.1333 61.64 51.7333 61.64 51.24V37.84C61.64 37.3466 61.24 36.9466 60.7467 36.9466H54.4933V39.6545Z" fill="#6350A3"/>
<path d="M27.6172 10.5C30.1542 14.5 29.7314 18.5 29.2028 20C44.0022 14 30.2599 7 28.6743 5C27.4058 3.4 28.1457 1 28.6743 0C26.5601 0.5 24.4459 5.5 27.6172 10.5Z" fill="#7C7D7F"/>
</svg>
