<svg width="140" height="98" viewBox="0 0 140 98" fill="none" xmlns="http://www.w3.org/2000/svg">
<ellipse cx="66.0517" cy="28.9068" rx="13.8467" ry="1.78667" fill="#7C7D7F"/>
<path d="M55.7783 23.5466C53.6567 23.5466 51.9817 23.5838 50.7533 23.6583C49.5436 23.7327 48.6503 23.9468 48.0733 24.3004C47.515 24.654 47.1614 25.2495 47.0125 26.087C46.8636 26.9059 46.7892 28.0598 46.7892 29.5487V39.7383C46.7892 41.0597 46.5844 42.195 46.175 43.1441C45.7656 44.0747 44.7978 44.54 43.2717 44.54C44.7978 44.54 45.7656 45.0145 46.175 45.9637C46.5844 46.8943 46.7892 48.0202 46.7892 49.3416V59.5312C46.7892 61.0201 46.8636 62.1833 47.0125 63.0208C47.1614 63.8397 47.515 64.4259 48.0733 64.7795C48.6503 65.1332 49.5436 65.3472 50.7533 65.4216C51.9817 65.4961 53.6567 65.5333 55.7783 65.5333V70C53.0239 70 50.7254 69.8883 48.8829 69.665C47.0404 69.4602 45.5701 69.0229 44.4721 68.3529C43.3926 67.7015 42.6203 66.7151 42.155 65.3937C41.7083 64.0723 41.485 62.3043 41.485 60.0895V49.4254C41.485 48.532 41.3826 47.8993 41.1779 47.527C40.9918 47.1548 40.5172 46.9408 39.7542 46.885C39.0097 46.8105 37.8 46.7733 36.125 46.7733V42.3066C37.8 42.3066 39.0097 42.2694 39.7542 42.195C40.5172 42.1205 40.9918 41.9065 41.1779 41.5529C41.3826 41.1807 41.485 40.5479 41.485 39.6545V28.9904C41.485 26.7757 41.7083 25.0076 42.155 23.6862C42.6203 22.3648 43.3926 21.3784 44.4721 20.727C45.5701 20.057 47.0404 19.6197 48.8829 19.415C50.7254 19.1916 53.0239 19.08 55.7783 19.08V23.5466Z" fill="#6350A3"/>
<path fill-rule="evenodd" clip-rule="evenodd" d="M76.325 19.08C79.0794 19.08 81.3779 19.1916 83.2204 19.415C85.0629 19.6197 86.5332 20.057 87.6312 20.727C88.7107 21.3784 89.4831 22.3648 89.9483 23.6862C90.395 25.0076 90.6183 26.7757 90.6183 28.9904V31.5866H96.8717C100.325 31.5866 103.125 34.3863 103.125 37.84V51.24C103.125 54.6936 100.325 57.4933 96.8717 57.4933H90.6183V60.0895C90.6183 62.3043 90.395 64.0723 89.9483 65.3937C89.4831 66.7151 88.7107 67.7015 87.6312 68.3529C86.5332 69.0229 85.0629 69.4602 83.2204 69.665C81.3779 69.8883 79.0794 70 76.325 70V65.5333C78.4467 65.5333 80.1217 65.4961 81.35 65.4216C82.5597 65.3472 83.4531 65.1332 84.03 64.7795C84.5883 64.4259 84.9419 63.8397 85.0908 63.0208C85.2397 62.1833 85.3142 61.0201 85.3142 59.5312V49.3416C85.3142 48.0202 85.5189 46.8943 85.9283 45.9637C86.3378 45.0145 87.3056 44.54 88.8317 44.54C87.3056 44.54 86.3378 44.0747 85.9283 43.1441C85.5189 42.195 85.3142 41.0597 85.3142 39.7383V29.5487C85.3142 28.0598 85.2397 26.9059 85.0908 26.087C84.9419 25.2495 84.5883 24.654 84.03 24.3004C83.4531 23.9468 82.5597 23.7327 81.35 23.6583C80.1217 23.5838 78.4467 23.5466 76.325 23.5466V19.08ZM90.6183 39.6545C90.6183 40.5479 90.7207 41.1807 90.9254 41.5529C91.1115 41.9065 91.5861 42.1205 92.3492 42.195C93.0936 42.2694 94.3033 42.3066 95.9783 42.3066V46.7733C94.3033 46.7733 93.0936 46.8105 92.3492 46.885C91.5861 46.9408 91.1115 47.1548 90.9254 47.527C90.7207 47.8993 90.6183 48.532 90.6183 49.4254V52.1333H96.8717C97.365 52.1333 97.765 51.7333 97.765 51.24V37.84C97.765 37.3466 97.365 36.9466 96.8717 36.9466H90.6183V39.6545Z" fill="#6350A3"/>
<path d="M63.7422 10.5C66.2792 14.5 65.8564 18.5 65.3278 20C80.1272 14 66.3849 7 64.7993 5C63.5308 3.4 64.2707 1 64.7993 0C62.6851 0.5 60.5709 5.5 63.7422 10.5Z" fill="#7C7D7F"/>
<mask id="path-5-outside-1_113_320" maskUnits="userSpaceOnUse" x="-0.875" y="82" width="141" height="14" fill="black">
<rect fill="white" x="-0.875" y="82" width="141" height="14"/>
<path d="M1 88.8867V88.6133C1 87.6836 1.04557 86.9043 1.13672 86.2754C1.22786 85.6419 1.38509 85.127 1.6084 84.7305C1.83171 84.334 2.13477 84.0309 2.51758 83.8213C2.90495 83.6117 3.3903 83.4704 3.97363 83.3975C4.55697 83.32 5.25879 83.2812 6.0791 83.2812H8.83398C9.77279 83.2812 10.5635 83.3268 11.2061 83.418C11.8532 83.5046 12.3727 83.68 12.7646 83.9443C13.1611 84.2041 13.4482 84.5892 13.626 85.0996C13.8037 85.6055 13.8926 86.2777 13.8926 87.1162H12.5801C12.5801 86.4554 12.5208 85.9427 12.4023 85.5781C12.2839 85.209 12.0833 84.9424 11.8008 84.7783C11.5228 84.6143 11.1423 84.514 10.6592 84.4775C10.1761 84.4365 9.56771 84.416 8.83398 84.416H6.0791C5.42741 84.416 4.87826 84.4365 4.43164 84.4775C3.98503 84.514 3.62044 84.6029 3.33789 84.7441C3.0599 84.8809 2.8457 85.0996 2.69531 85.4004C2.54948 85.7012 2.44922 86.1113 2.39453 86.6309C2.33984 87.1504 2.3125 87.8112 2.3125 88.6133V88.8867C2.3125 89.6615 2.33984 90.304 2.39453 90.8145C2.44922 91.3249 2.54948 91.7327 2.69531 92.0381C2.8457 92.3434 3.0599 92.5713 3.33789 92.7217C3.62044 92.8721 3.98503 92.9701 4.43164 93.0156C4.87826 93.0612 5.42741 93.084 6.0791 93.084H8.83398C9.56771 93.084 10.1761 93.068 10.6592 93.0361C11.1423 93.0042 11.5228 92.9108 11.8008 92.7559C12.0833 92.6009 12.2839 92.3434 12.4023 91.9834C12.5208 91.6188 12.5801 91.1084 12.5801 90.4521H13.8926C13.8926 91.2907 13.8037 91.9606 13.626 92.4619C13.4482 92.9632 13.1611 93.3415 12.7646 93.5967C12.3727 93.8473 11.8532 94.0137 11.2061 94.0957C10.5635 94.1777 9.77279 94.2188 8.83398 94.2188H6.0791C5.05371 94.2188 4.21061 94.1481 3.5498 94.0068C2.889 93.8701 2.37174 93.6149 1.99805 93.2412C1.62891 92.8675 1.36914 92.3298 1.21875 91.6279C1.07292 90.9261 1 90.0124 1 88.8867ZM22.149 94.2188C21.1236 94.2188 20.2805 94.1481 19.6197 94.0068C18.9589 93.8701 18.4417 93.6149 18.068 93.2412C17.6988 92.8675 17.4391 92.3298 17.2887 91.6279C17.1428 90.9261 17.0699 90.0124 17.0699 88.8867V88.6133C17.0699 87.6836 17.1155 86.9043 17.2066 86.2754C17.2978 85.6419 17.455 85.127 17.6783 84.7305C17.9016 84.334 18.2047 84.0309 18.5875 83.8213C18.9749 83.6117 19.4602 83.4704 20.0436 83.3975C20.6269 83.32 21.3287 83.2812 22.149 83.2812H24.9039C25.7242 83.2812 26.426 83.32 27.0094 83.3975C27.5927 83.4704 28.0758 83.6117 28.4586 83.8213C28.846 84.0309 29.1513 84.334 29.3746 84.7305C29.5979 85.127 29.7551 85.6419 29.8463 86.2754C29.9374 86.9043 29.983 87.6836 29.983 88.6133V88.8867C29.983 90.0124 29.9078 90.9261 29.7574 91.6279C29.6116 92.3298 29.3518 92.8675 28.9781 93.2412C28.609 93.6149 28.094 93.8701 27.4332 94.0068C26.7724 94.1481 25.9293 94.2188 24.9039 94.2188H22.149ZM22.149 93.084H24.9039C25.5556 93.084 26.1048 93.0612 26.5514 93.0156C26.998 92.9701 27.3603 92.8721 27.6383 92.7217C27.9208 92.5713 28.135 92.3434 28.2809 92.0381C28.4312 91.7327 28.5338 91.3249 28.5885 90.8145C28.6432 90.304 28.6705 89.6615 28.6705 88.8867V88.6133C28.6705 87.8112 28.6432 87.1504 28.5885 86.6309C28.5338 86.1113 28.4312 85.7012 28.2809 85.4004C28.135 85.0996 27.9208 84.8809 27.6383 84.7441C27.3603 84.6029 26.998 84.514 26.5514 84.4775C26.1048 84.4365 25.5556 84.416 24.9039 84.416H22.149C21.4973 84.416 20.9482 84.4365 20.5016 84.4775C20.0549 84.514 19.6904 84.6029 19.4078 84.7441C19.1298 84.8809 18.9156 85.0996 18.7652 85.4004C18.6194 85.7012 18.5191 86.1113 18.4645 86.6309C18.4098 87.1504 18.3824 87.8112 18.3824 88.6133V88.8867C18.3824 89.6615 18.4098 90.304 18.4645 90.8145C18.5191 91.3249 18.6194 91.7327 18.7652 92.0381C18.9156 92.3434 19.1298 92.5713 19.4078 92.7217C19.6904 92.8721 20.0549 92.9701 20.5016 93.0156C20.9482 93.0612 21.4973 93.084 22.149 93.084ZM33.6047 94V83.5H41.3977C42.423 83.5 43.2661 83.5615 43.927 83.6846C44.5878 83.8076 45.1027 84.0469 45.4719 84.4023C45.8456 84.7533 46.1053 85.266 46.2512 85.9404C46.4016 86.6149 46.4768 87.5059 46.4768 88.6133V88.8867C46.4768 89.9577 46.4016 90.8304 46.2512 91.5049C46.1053 92.1748 45.8456 92.6921 45.4719 93.0566C45.1027 93.4167 44.5878 93.665 43.927 93.8018C43.2661 93.9339 42.423 94 41.3977 94H33.6047ZM34.9172 92.8652H41.3977C42.2134 92.8652 42.8697 92.8265 43.3664 92.749C43.8632 92.6715 44.2414 92.5029 44.5012 92.2432C44.7609 91.9834 44.9364 91.5869 45.0275 91.0537C45.1187 90.5205 45.1643 89.7982 45.1643 88.8867V88.6133C45.1643 87.8568 45.1369 87.2324 45.0822 86.7402C45.0275 86.248 44.925 85.8607 44.7746 85.5781C44.6288 85.291 44.4146 85.0814 44.132 84.9492C43.854 84.8125 43.4917 84.7259 43.0451 84.6895C42.5985 84.653 42.0493 84.6348 41.3977 84.6348H34.9172V92.8652ZM50.0711 94V83.5H60.3797V84.5938H51.3836V88.0938H60.0037V89.1875H51.3836V92.9062H60.5711V94H50.0711ZM68.6621 88.8867V88.6133C68.6621 87.6836 68.7077 86.9043 68.7988 86.2754C68.89 85.6419 69.0472 85.127 69.2705 84.7305C69.4938 84.334 69.7969 84.0309 70.1797 83.8213C70.5671 83.6117 71.0524 83.4704 71.6357 83.3975C72.2191 83.32 72.9209 83.2812 73.7412 83.2812H76.4961C77.4349 83.2812 78.2256 83.3268 78.8682 83.418C79.5153 83.5046 80.0348 83.68 80.4268 83.9443C80.8232 84.2041 81.1104 84.5892 81.2881 85.0996C81.4658 85.6055 81.5547 86.2777 81.5547 87.1162H80.2422C80.2422 86.4554 80.1829 85.9427 80.0645 85.5781C79.946 85.209 79.7454 84.9424 79.4629 84.7783C79.1849 84.6143 78.8044 84.514 78.3213 84.4775C77.8382 84.4365 77.2298 84.416 76.4961 84.416H73.7412C73.0895 84.416 72.5404 84.4365 72.0938 84.4775C71.6471 84.514 71.2826 84.6029 71 84.7441C70.722 84.8809 70.5078 85.0996 70.3574 85.4004C70.2116 85.7012 70.1113 86.1113 70.0566 86.6309C70.002 87.1504 69.9746 87.8112 69.9746 88.6133V88.8867C69.9746 89.6615 70.002 90.304 70.0566 90.8145C70.1113 91.3249 70.2116 91.7327 70.3574 92.0381C70.5078 92.3434 70.722 92.5713 71 92.7217C71.2826 92.8721 71.6471 92.9701 72.0938 93.0156C72.5404 93.0612 73.0895 93.084 73.7412 93.084H76.4961C77.2298 93.084 77.8382 93.068 78.3213 93.0361C78.8044 93.0042 79.1849 92.9108 79.4629 92.7559C79.7454 92.6009 79.946 92.3434 80.0645 91.9834C80.1829 91.6188 80.2422 91.1084 80.2422 90.4521H81.5547C81.5547 91.2907 81.4658 91.9606 81.2881 92.4619C81.1104 92.9632 80.8232 93.3415 80.4268 93.5967C80.0348 93.8473 79.5153 94.0137 78.8682 94.0957C78.2256 94.1777 77.4349 94.2188 76.4961 94.2188H73.7412C72.7158 94.2188 71.8727 94.1481 71.2119 94.0068C70.5511 93.8701 70.0339 93.6149 69.6602 93.2412C69.291 92.8675 69.0312 92.3298 68.8809 91.6279C68.735 90.9261 68.6621 90.0124 68.6621 88.8867ZM89.8111 94.2188C88.7857 94.2188 87.9426 94.1481 87.2818 94.0068C86.621 93.8701 86.1038 93.6149 85.7301 93.2412C85.3609 92.8675 85.1012 92.3298 84.9508 91.6279C84.8049 90.9261 84.732 90.0124 84.732 88.8867V88.6133C84.732 87.6836 84.7776 86.9043 84.8688 86.2754C84.9599 85.6419 85.1171 85.127 85.3404 84.7305C85.5637 84.334 85.8668 84.0309 86.2496 83.8213C86.637 83.6117 87.1223 83.4704 87.7057 83.3975C88.289 83.32 88.9908 83.2812 89.8111 83.2812H92.566C93.3863 83.2812 94.0882 83.32 94.6715 83.3975C95.2548 83.4704 95.7379 83.6117 96.1207 83.8213C96.5081 84.0309 96.8134 84.334 97.0367 84.7305C97.26 85.127 97.4173 85.6419 97.5084 86.2754C97.5995 86.9043 97.6451 87.6836 97.6451 88.6133V88.8867C97.6451 90.0124 97.5699 90.9261 97.4195 91.6279C97.2737 92.3298 97.0139 92.8675 96.6402 93.2412C96.2711 93.6149 95.7561 93.8701 95.0953 94.0068C94.4345 94.1481 93.5914 94.2188 92.566 94.2188H89.8111ZM89.8111 93.084H92.566C93.2177 93.084 93.7669 93.0612 94.2135 93.0156C94.6601 92.9701 95.0224 92.8721 95.3004 92.7217C95.5829 92.5713 95.7971 92.3434 95.943 92.0381C96.0934 91.7327 96.1959 91.3249 96.2506 90.8145C96.3053 90.304 96.3326 89.6615 96.3326 88.8867V88.6133C96.3326 87.8112 96.3053 87.1504 96.2506 86.6309C96.1959 86.1113 96.0934 85.7012 95.943 85.4004C95.7971 85.0996 95.5829 84.8809 95.3004 84.7441C95.0224 84.6029 94.6601 84.514 94.2135 84.4775C93.7669 84.4365 93.2177 84.416 92.566 84.416H89.8111C89.1594 84.416 88.6103 84.4365 88.1637 84.4775C87.7171 84.514 87.3525 84.6029 87.0699 84.7441C86.7919 84.8809 86.5777 85.0996 86.4273 85.4004C86.2815 85.7012 86.1813 86.1113 86.1266 86.6309C86.0719 87.1504 86.0445 87.8112 86.0445 88.6133V88.8867C86.0445 89.6615 86.0719 90.304 86.1266 90.8145C86.1813 91.3249 86.2815 91.7327 86.4273 92.0381C86.5777 92.3434 86.7919 92.5713 87.0699 92.7217C87.3525 92.8721 87.7171 92.9701 88.1637 93.0156C88.6103 93.0612 89.1594 93.084 89.8111 93.084ZM101.239 94V83.5H111.138V84.5938H102.552V88.0938H110.748V89.1875H102.552V94H101.239ZM114.452 94V83.5H124.761V84.5938H115.764V88.0938H124.385V89.1875H115.764V92.9062H124.952V94H114.452ZM128.102 94V83.5H138.411V84.5938H129.414V88.0938H138.035V89.1875H129.414V92.9062H138.602V94H128.102Z"/>
</mask>
<path d="M1 88.8867V88.6133C1 87.6836 1.04557 86.9043 1.13672 86.2754C1.22786 85.6419 1.38509 85.127 1.6084 84.7305C1.83171 84.334 2.13477 84.0309 2.51758 83.8213C2.90495 83.6117 3.3903 83.4704 3.97363 83.3975C4.55697 83.32 5.25879 83.2812 6.0791 83.2812H8.83398C9.77279 83.2812 10.5635 83.3268 11.2061 83.418C11.8532 83.5046 12.3727 83.68 12.7646 83.9443C13.1611 84.2041 13.4482 84.5892 13.626 85.0996C13.8037 85.6055 13.8926 86.2777 13.8926 87.1162H12.5801C12.5801 86.4554 12.5208 85.9427 12.4023 85.5781C12.2839 85.209 12.0833 84.9424 11.8008 84.7783C11.5228 84.6143 11.1423 84.514 10.6592 84.4775C10.1761 84.4365 9.56771 84.416 8.83398 84.416H6.0791C5.42741 84.416 4.87826 84.4365 4.43164 84.4775C3.98503 84.514 3.62044 84.6029 3.33789 84.7441C3.0599 84.8809 2.8457 85.0996 2.69531 85.4004C2.54948 85.7012 2.44922 86.1113 2.39453 86.6309C2.33984 87.1504 2.3125 87.8112 2.3125 88.6133V88.8867C2.3125 89.6615 2.33984 90.304 2.39453 90.8145C2.44922 91.3249 2.54948 91.7327 2.69531 92.0381C2.8457 92.3434 3.0599 92.5713 3.33789 92.7217C3.62044 92.8721 3.98503 92.9701 4.43164 93.0156C4.87826 93.0612 5.42741 93.084 6.0791 93.084H8.83398C9.56771 93.084 10.1761 93.068 10.6592 93.0361C11.1423 93.0042 11.5228 92.9108 11.8008 92.7559C12.0833 92.6009 12.2839 92.3434 12.4023 91.9834C12.5208 91.6188 12.5801 91.1084 12.5801 90.4521H13.8926C13.8926 91.2907 13.8037 91.9606 13.626 92.4619C13.4482 92.9632 13.1611 93.3415 12.7646 93.5967C12.3727 93.8473 11.8532 94.0137 11.2061 94.0957C10.5635 94.1777 9.77279 94.2188 8.83398 94.2188H6.0791C5.05371 94.2188 4.21061 94.1481 3.5498 94.0068C2.889 93.8701 2.37174 93.6149 1.99805 93.2412C1.62891 92.8675 1.36914 92.3298 1.21875 91.6279C1.07292 90.9261 1 90.0124 1 88.8867ZM22.149 94.2188C21.1236 94.2188 20.2805 94.1481 19.6197 94.0068C18.9589 93.8701 18.4417 93.6149 18.068 93.2412C17.6988 92.8675 17.4391 92.3298 17.2887 91.6279C17.1428 90.9261 17.0699 90.0124 17.0699 88.8867V88.6133C17.0699 87.6836 17.1155 86.9043 17.2066 86.2754C17.2978 85.6419 17.455 85.127 17.6783 84.7305C17.9016 84.334 18.2047 84.0309 18.5875 83.8213C18.9749 83.6117 19.4602 83.4704 20.0436 83.3975C20.6269 83.32 21.3287 83.2812 22.149 83.2812H24.9039C25.7242 83.2812 26.426 83.32 27.0094 83.3975C27.5927 83.4704 28.0758 83.6117 28.4586 83.8213C28.846 84.0309 29.1513 84.334 29.3746 84.7305C29.5979 85.127 29.7551 85.6419 29.8463 86.2754C29.9374 86.9043 29.983 87.6836 29.983 88.6133V88.8867C29.983 90.0124 29.9078 90.9261 29.7574 91.6279C29.6116 92.3298 29.3518 92.8675 28.9781 93.2412C28.609 93.6149 28.094 93.8701 27.4332 94.0068C26.7724 94.1481 25.9293 94.2188 24.9039 94.2188H22.149ZM22.149 93.084H24.9039C25.5556 93.084 26.1048 93.0612 26.5514 93.0156C26.998 92.9701 27.3603 92.8721 27.6383 92.7217C27.9208 92.5713 28.135 92.3434 28.2809 92.0381C28.4312 91.7327 28.5338 91.3249 28.5885 90.8145C28.6432 90.304 28.6705 89.6615 28.6705 88.8867V88.6133C28.6705 87.8112 28.6432 87.1504 28.5885 86.6309C28.5338 86.1113 28.4312 85.7012 28.2809 85.4004C28.135 85.0996 27.9208 84.8809 27.6383 84.7441C27.3603 84.6029 26.998 84.514 26.5514 84.4775C26.1048 84.4365 25.5556 84.416 24.9039 84.416H22.149C21.4973 84.416 20.9482 84.4365 20.5016 84.4775C20.0549 84.514 19.6904 84.6029 19.4078 84.7441C19.1298 84.8809 18.9156 85.0996 18.7652 85.4004C18.6194 85.7012 18.5191 86.1113 18.4645 86.6309C18.4098 87.1504 18.3824 87.8112 18.3824 88.6133V88.8867C18.3824 89.6615 18.4098 90.304 18.4645 90.8145C18.5191 91.3249 18.6194 91.7327 18.7652 92.0381C18.9156 92.3434 19.1298 92.5713 19.4078 92.7217C19.6904 92.8721 20.0549 92.9701 20.5016 93.0156C20.9482 93.0612 21.4973 93.084 22.149 93.084ZM33.6047 94V83.5H41.3977C42.423 83.5 43.2661 83.5615 43.927 83.6846C44.5878 83.8076 45.1027 84.0469 45.4719 84.4023C45.8456 84.7533 46.1053 85.266 46.2512 85.9404C46.4016 86.6149 46.4768 87.5059 46.4768 88.6133V88.8867C46.4768 89.9577 46.4016 90.8304 46.2512 91.5049C46.1053 92.1748 45.8456 92.6921 45.4719 93.0566C45.1027 93.4167 44.5878 93.665 43.927 93.8018C43.2661 93.9339 42.423 94 41.3977 94H33.6047ZM34.9172 92.8652H41.3977C42.2134 92.8652 42.8697 92.8265 43.3664 92.749C43.8632 92.6715 44.2414 92.5029 44.5012 92.2432C44.7609 91.9834 44.9364 91.5869 45.0275 91.0537C45.1187 90.5205 45.1643 89.7982 45.1643 88.8867V88.6133C45.1643 87.8568 45.1369 87.2324 45.0822 86.7402C45.0275 86.248 44.925 85.8607 44.7746 85.5781C44.6288 85.291 44.4146 85.0814 44.132 84.9492C43.854 84.8125 43.4917 84.7259 43.0451 84.6895C42.5985 84.653 42.0493 84.6348 41.3977 84.6348H34.9172V92.8652ZM50.0711 94V83.5H60.3797V84.5938H51.3836V88.0938H60.0037V89.1875H51.3836V92.9062H60.5711V94H50.0711ZM68.6621 88.8867V88.6133C68.6621 87.6836 68.7077 86.9043 68.7988 86.2754C68.89 85.6419 69.0472 85.127 69.2705 84.7305C69.4938 84.334 69.7969 84.0309 70.1797 83.8213C70.5671 83.6117 71.0524 83.4704 71.6357 83.3975C72.2191 83.32 72.9209 83.2812 73.7412 83.2812H76.4961C77.4349 83.2812 78.2256 83.3268 78.8682 83.418C79.5153 83.5046 80.0348 83.68 80.4268 83.9443C80.8232 84.2041 81.1104 84.5892 81.2881 85.0996C81.4658 85.6055 81.5547 86.2777 81.5547 87.1162H80.2422C80.2422 86.4554 80.1829 85.9427 80.0645 85.5781C79.946 85.209 79.7454 84.9424 79.4629 84.7783C79.1849 84.6143 78.8044 84.514 78.3213 84.4775C77.8382 84.4365 77.2298 84.416 76.4961 84.416H73.7412C73.0895 84.416 72.5404 84.4365 72.0938 84.4775C71.6471 84.514 71.2826 84.6029 71 84.7441C70.722 84.8809 70.5078 85.0996 70.3574 85.4004C70.2116 85.7012 70.1113 86.1113 70.0566 86.6309C70.002 87.1504 69.9746 87.8112 69.9746 88.6133V88.8867C69.9746 89.6615 70.002 90.304 70.0566 90.8145C70.1113 91.3249 70.2116 91.7327 70.3574 92.0381C70.5078 92.3434 70.722 92.5713 71 92.7217C71.2826 92.8721 71.6471 92.9701 72.0938 93.0156C72.5404 93.0612 73.0895 93.084 73.7412 93.084H76.4961C77.2298 93.084 77.8382 93.068 78.3213 93.0361C78.8044 93.0042 79.1849 92.9108 79.4629 92.7559C79.7454 92.6009 79.946 92.3434 80.0645 91.9834C80.1829 91.6188 80.2422 91.1084 80.2422 90.4521H81.5547C81.5547 91.2907 81.4658 91.9606 81.2881 92.4619C81.1104 92.9632 80.8232 93.3415 80.4268 93.5967C80.0348 93.8473 79.5153 94.0137 78.8682 94.0957C78.2256 94.1777 77.4349 94.2188 76.4961 94.2188H73.7412C72.7158 94.2188 71.8727 94.1481 71.2119 94.0068C70.5511 93.8701 70.0339 93.6149 69.6602 93.2412C69.291 92.8675 69.0312 92.3298 68.8809 91.6279C68.735 90.9261 68.6621 90.0124 68.6621 88.8867ZM89.8111 94.2188C88.7857 94.2188 87.9426 94.1481 87.2818 94.0068C86.621 93.8701 86.1038 93.6149 85.7301 93.2412C85.3609 92.8675 85.1012 92.3298 84.9508 91.6279C84.8049 90.9261 84.732 90.0124 84.732 88.8867V88.6133C84.732 87.6836 84.7776 86.9043 84.8688 86.2754C84.9599 85.6419 85.1171 85.127 85.3404 84.7305C85.5637 84.334 85.8668 84.0309 86.2496 83.8213C86.637 83.6117 87.1223 83.4704 87.7057 83.3975C88.289 83.32 88.9908 83.2812 89.8111 83.2812H92.566C93.3863 83.2812 94.0882 83.32 94.6715 83.3975C95.2548 83.4704 95.7379 83.6117 96.1207 83.8213C96.5081 84.0309 96.8134 84.334 97.0367 84.7305C97.26 85.127 97.4173 85.6419 97.5084 86.2754C97.5995 86.9043 97.6451 87.6836 97.6451 88.6133V88.8867C97.6451 90.0124 97.5699 90.9261 97.4195 91.6279C97.2737 92.3298 97.0139 92.8675 96.6402 93.2412C96.2711 93.6149 95.7561 93.8701 95.0953 94.0068C94.4345 94.1481 93.5914 94.2188 92.566 94.2188H89.8111ZM89.8111 93.084H92.566C93.2177 93.084 93.7669 93.0612 94.2135 93.0156C94.6601 92.9701 95.0224 92.8721 95.3004 92.7217C95.5829 92.5713 95.7971 92.3434 95.943 92.0381C96.0934 91.7327 96.1959 91.3249 96.2506 90.8145C96.3053 90.304 96.3326 89.6615 96.3326 88.8867V88.6133C96.3326 87.8112 96.3053 87.1504 96.2506 86.6309C96.1959 86.1113 96.0934 85.7012 95.943 85.4004C95.7971 85.0996 95.5829 84.8809 95.3004 84.7441C95.0224 84.6029 94.6601 84.514 94.2135 84.4775C93.7669 84.4365 93.2177 84.416 92.566 84.416H89.8111C89.1594 84.416 88.6103 84.4365 88.1637 84.4775C87.7171 84.514 87.3525 84.6029 87.0699 84.7441C86.7919 84.8809 86.5777 85.0996 86.4273 85.4004C86.2815 85.7012 86.1813 86.1113 86.1266 86.6309C86.0719 87.1504 86.0445 87.8112 86.0445 88.6133V88.8867C86.0445 89.6615 86.0719 90.304 86.1266 90.8145C86.1813 91.3249 86.2815 91.7327 86.4273 92.0381C86.5777 92.3434 86.7919 92.5713 87.0699 92.7217C87.3525 92.8721 87.7171 92.9701 88.1637 93.0156C88.6103 93.0612 89.1594 93.084 89.8111 93.084ZM101.239 94V83.5H111.138V84.5938H102.552V88.0938H110.748V89.1875H102.552V94H101.239ZM114.452 94V83.5H124.761V84.5938H115.764V88.0938H124.385V89.1875H115.764V92.9062H124.952V94H114.452ZM128.102 94V83.5H138.411V84.5938H129.414V88.0938H138.035V89.1875H129.414V92.9062H138.602V94H128.102Z" fill="#6350A3"/>
<path d="M1.13672 86.2754L2.12638 86.4188L2.12653 86.4178L1.13672 86.2754ZM2.51758 83.8213L2.04162 82.9418L2.03726 82.9442L2.51758 83.8213ZM3.97363 83.3975L4.09767 84.3898L4.10529 84.3888L3.97363 83.3975ZM11.2061 83.418L11.0656 84.4081L11.0734 84.4091L11.2061 83.418ZM12.7646 83.9443L12.2055 84.7735L12.2166 84.7808L12.7646 83.9443ZM13.626 85.0996L12.6816 85.4285L12.6825 85.4311L13.626 85.0996ZM13.8926 87.1162V88.1162H14.8926V87.1162H13.8926ZM12.5801 87.1162H11.5801V88.1162H12.5801V87.1162ZM12.4023 85.5781L11.4502 85.8838L11.4513 85.8872L12.4023 85.5781ZM11.8008 84.7783L11.2925 85.6395L11.2986 85.6431L11.8008 84.7783ZM10.6592 84.4775L10.5746 85.474L10.5839 85.4747L10.6592 84.4775ZM4.43164 84.4775L4.51301 85.4743L4.52309 85.4733L4.43164 84.4775ZM3.33789 84.7441L3.77922 85.6415L3.7851 85.6386L3.33789 84.7441ZM2.69531 85.4004L1.80082 84.9531L1.7955 84.9641L2.69531 85.4004ZM2.69531 92.0381L1.79288 92.4691L1.79822 92.4799L2.69531 92.0381ZM3.33789 92.7217L2.86206 93.6012L2.86804 93.6044L3.33789 92.7217ZM11.8008 92.7559L11.3199 91.879L11.3139 91.8824L11.8008 92.7559ZM12.4023 91.9834L13.3522 92.296L13.3534 92.2925L12.4023 91.9834ZM12.5801 90.4521V89.4521H11.5801V90.4521H12.5801ZM13.8926 90.4521H14.8926V89.4521H13.8926V90.4521ZM12.7646 93.5967L13.3034 94.4391L13.3059 94.4375L12.7646 93.5967ZM11.2061 94.0957L11.0803 93.1036L11.0794 93.1038L11.2061 94.0957ZM3.5498 94.0068L3.75888 93.0289L3.75241 93.0276L3.5498 94.0068ZM1.99805 93.2412L1.2866 93.944L1.29094 93.9483L1.99805 93.2412ZM1.21875 91.6279L0.239645 91.8314L0.240948 91.8375L1.21875 91.6279ZM1 88.8867H2V88.6133H1H0V88.8867H1ZM1 88.6133H2C2 87.7118 2.04447 86.984 2.12638 86.4188L1.13672 86.2754L0.147058 86.132C0.0466746 86.8246 0 87.6554 0 88.6133H1ZM1.13672 86.2754L2.12653 86.4178C2.20667 85.8608 2.33636 85.4757 2.47971 85.2212L1.6084 84.7305L0.73709 84.2397C0.433825 84.7782 0.249056 85.4231 0.146912 86.133L1.13672 86.2754ZM1.6084 84.7305L2.47971 85.2212C2.61543 84.9802 2.78612 84.8144 2.99789 84.6984L2.51758 83.8213L2.03726 82.9442C1.48341 83.2475 1.04798 83.6877 0.73709 84.2397L1.6084 84.7305ZM2.51758 83.8213L2.99353 84.7008C3.24178 84.5664 3.59876 84.4521 4.09767 84.3897L3.97363 83.3975L3.8496 82.4052C3.18184 82.4887 2.56812 82.6569 2.04163 82.9418L2.51758 83.8213ZM3.97363 83.3975L4.10529 84.3888C4.63175 84.3188 5.28708 84.2812 6.0791 84.2812V83.2812V82.2812C5.2305 82.2812 4.48218 82.3211 3.84198 82.4062L3.97363 83.3975ZM6.0791 83.2812V84.2812H8.83398V83.2812V82.2812H6.0791V83.2812ZM8.83398 83.2812V84.2812C9.74458 84.2812 10.485 84.3257 11.0656 84.4081L11.2061 83.418L11.3465 82.4279C10.6419 82.3279 9.80099 82.2812 8.83398 82.2812V83.2812ZM11.2061 83.418L11.0734 84.4091C11.6227 84.4826 11.9805 84.6217 12.2055 84.7734L12.7646 83.9443L13.3238 83.1153C12.7649 82.7384 12.0836 82.5265 11.3387 82.4268L11.2061 83.418ZM12.7646 83.9443L12.2166 84.7808C12.4032 84.9031 12.5657 85.0957 12.6816 85.4285L13.626 85.0996L14.5704 84.7708C14.3308 84.0827 13.919 83.5051 13.3127 83.1079L12.7646 83.9443ZM13.626 85.0996L12.6825 85.4311C12.8079 85.7879 12.8926 86.3343 12.8926 87.1162H13.8926H14.8926C14.8926 86.2211 14.7996 85.4231 14.5694 84.7681L13.626 85.0996ZM13.8926 87.1162V86.1162H12.5801V87.1162V88.1162H13.8926V87.1162ZM12.5801 87.1162H13.5801C13.5801 86.4148 13.5195 85.7803 13.3534 85.269L12.4023 85.5781L11.4513 85.8872C11.5221 86.1051 11.5801 86.496 11.5801 87.1162H12.5801ZM12.4023 85.5781L13.3545 85.2725C13.1753 84.7142 12.8383 84.2244 12.3029 83.9135L11.8008 84.7783L11.2986 85.6431C11.3284 85.6604 11.3924 85.7038 11.4502 85.8838L12.4023 85.5781ZM11.8008 84.7783L12.309 83.9171C11.8496 83.646 11.3004 83.5231 10.7344 83.4804L10.6592 84.4775L10.5839 85.4747C10.9841 85.5049 11.196 85.5826 11.2925 85.6395L11.8008 84.7783ZM10.6592 84.4775L10.7438 83.4811C10.2222 83.4368 9.58321 83.416 8.83398 83.416V84.416V85.416C9.5522 85.416 10.13 85.4362 10.5746 85.474L10.6592 84.4775ZM8.83398 84.416V83.416H6.0791V84.416V85.416H8.83398V84.416ZM6.0791 84.416V83.416C5.40922 83.416 4.82742 83.437 4.34019 83.4817L4.43164 84.4775L4.52309 85.4733C4.92909 85.4361 5.4456 85.416 6.0791 85.416V84.416ZM4.43164 84.4775L4.35028 83.4809C3.8255 83.5237 3.32465 83.6327 2.89068 83.8497L3.33789 84.7441L3.7851 85.6386C3.91624 85.573 4.14455 85.5043 4.513 85.4742L4.43164 84.4775ZM3.33789 84.7441L2.89657 83.8468C2.40531 84.0884 2.04018 84.4746 1.80089 84.9532L2.69531 85.4004L3.58974 85.8476C3.65123 85.7246 3.71448 85.6733 3.77921 85.6415L3.33789 84.7441ZM2.69531 85.4004L1.7955 84.9641C1.57894 85.4108 1.4608 85.9488 1.40003 86.5262L2.39453 86.6309L3.38904 86.7355C3.43764 86.2738 3.52001 85.9916 3.59513 85.8367L2.69531 85.4004ZM2.39453 86.6309L1.40003 86.5262C1.34029 87.0936 1.3125 87.7926 1.3125 88.6133H2.3125H3.3125C3.3125 87.8298 3.3394 87.2071 3.38904 86.7355L2.39453 86.6309ZM2.3125 88.6133H1.3125V88.8867H2.3125H3.3125V88.6133H2.3125ZM2.3125 88.8867H1.3125C1.3125 89.6811 1.34036 90.3623 1.40022 90.921L2.39453 90.8145L3.38884 90.7079C3.33933 90.2458 3.3125 89.6418 3.3125 88.8867H2.3125ZM2.39453 90.8145L1.40022 90.921C1.46139 91.4919 1.57995 92.0231 1.79295 92.4691L2.69531 92.0381L3.59767 91.6071C3.51901 91.4424 3.43705 91.1578 3.38884 90.7079L2.39453 90.8145ZM2.69531 92.0381L1.79822 92.4799C2.03282 92.9562 2.38741 93.3444 2.86207 93.6012L3.33789 92.7217L3.81371 91.8421C3.73238 91.7981 3.65859 91.7306 3.5924 91.5962L2.69531 92.0381ZM3.33789 92.7217L2.86804 93.6044C3.30106 93.8349 3.80276 93.9566 4.33013 94.0105L4.43164 93.0156L4.53315 92.0208C4.16729 91.9835 3.93983 91.9092 3.80774 91.8389L3.33789 92.7217ZM4.43164 93.0156L4.33013 94.0105C4.82177 94.0606 5.40717 94.084 6.0791 94.084V93.084V92.084C5.44764 92.084 4.93474 92.0618 4.53315 92.0208L4.43164 93.0156ZM6.0791 93.084V94.084H8.83398V93.084V92.084H6.0791V93.084ZM8.83398 93.084V94.084C9.57975 94.084 10.212 94.0678 10.7251 94.034L10.6592 93.0361L10.5933 92.0383C10.1402 92.0682 9.55567 92.084 8.83398 92.084V93.084ZM10.6592 93.0361L10.7251 94.034C11.2861 93.9969 11.8305 93.8841 12.2876 93.6293L11.8008 92.7559L11.3139 91.8824C11.215 91.9375 10.9984 92.0115 10.5933 92.0383L10.6592 93.0361ZM11.8008 92.7559L12.2816 93.6327C12.8248 93.3348 13.1694 92.8515 13.3522 92.296L12.4023 91.9834L11.4525 91.6708C11.3983 91.8353 11.3418 91.867 11.3199 91.879L11.8008 92.7559ZM12.4023 91.9834L13.3534 92.2925C13.5194 91.7817 13.5801 91.1499 13.5801 90.4521H12.5801H11.5801C11.5801 91.0669 11.5223 91.4559 11.4513 91.6743L12.4023 91.9834ZM12.5801 90.4521V91.4521H13.8926V90.4521V89.4521H12.5801V90.4521ZM13.8926 90.4521H12.8926C12.8926 91.2347 12.8077 91.7773 12.6835 92.1277L13.626 92.4619L14.5685 92.7961C14.7997 92.1439 14.8926 91.3467 14.8926 90.4521H13.8926ZM13.626 92.4619L12.6835 92.1277C12.5697 92.4485 12.4101 92.6356 12.2234 92.7558L12.7646 93.5967L13.3059 94.4375C13.9121 94.0473 14.3267 93.4779 14.5685 92.7961L13.626 92.4619ZM12.7646 93.5967L12.2259 92.7542C11.9986 92.8996 11.6357 93.0332 11.0803 93.1036L11.2061 94.0957L11.3318 95.0878C12.0707 94.9941 12.7469 94.7951 13.3034 94.4391L12.7646 93.5967ZM11.2061 94.0957L11.0794 93.1038C10.4929 93.1786 9.74745 93.2188 8.83398 93.2188V94.2188V95.2188C9.79812 95.2188 10.6341 95.1768 11.3327 95.0877L11.2061 94.0957ZM8.83398 94.2188V93.2188H6.0791V94.2188V95.2188H8.83398V94.2188ZM6.0791 94.2188V93.2188C5.09187 93.2188 4.32541 93.1501 3.75887 93.0289L3.5498 94.0068L3.34074 94.9847C4.09582 95.1462 5.01555 95.2188 6.0791 95.2188V94.2188ZM3.5498 94.0068L3.75241 93.0276C3.23017 92.9195 2.90725 92.7362 2.70515 92.5341L1.99805 93.2412L1.29094 93.9483C1.83624 94.4936 2.54782 94.8207 3.3472 94.9861L3.5498 94.0068ZM1.99805 93.2412L2.70948 92.5385C2.51501 92.3416 2.32115 91.9999 2.19655 91.4184L1.21875 91.6279L0.240948 91.8375C0.417128 92.6596 0.742801 93.3934 1.28662 93.944L1.99805 93.2412ZM1.21875 91.6279L2.19784 91.4245C2.07144 90.8162 2 89.978 2 88.8867H1H0C0 90.0468 0.0743958 91.036 0.239664 91.8314L1.21875 91.6279ZM19.6197 94.0068L19.8288 93.0289L19.8223 93.0276L19.6197 94.0068ZM18.068 93.2412L17.3565 93.944L17.3609 93.9483L18.068 93.2412ZM17.2887 91.6279L16.3096 91.8314L16.3109 91.8375L17.2887 91.6279ZM17.2066 86.2754L18.1963 86.4188L18.1964 86.4178L17.2066 86.2754ZM18.5875 83.8213L18.1115 82.9418L18.1072 82.9442L18.5875 83.8213ZM20.0436 83.3975L20.1676 84.3898L20.1752 84.3888L20.0436 83.3975ZM27.0094 83.3975L26.8777 84.3888L26.8853 84.3897L27.0094 83.3975ZM28.4586 83.8213L27.9783 84.6984L27.9826 84.7008L28.4586 83.8213ZM29.8463 86.2754L28.8565 86.4178L28.8566 86.4188L29.8463 86.2754ZM29.7574 91.6279L28.7796 91.4184L28.7783 91.4245L29.7574 91.6279ZM28.9781 93.2412L28.271 92.5341L28.2667 92.5385L28.9781 93.2412ZM27.4332 94.0068L27.2306 93.0276L27.2241 93.0289L27.4332 94.0068ZM26.5514 93.0156L26.4499 92.0208L26.5514 93.0156ZM27.6383 92.7217L27.1684 91.8389L27.1625 91.8421L27.6383 92.7217ZM28.2809 92.0381L27.3837 91.5962L27.3785 91.6071L28.2809 92.0381ZM28.2809 85.4004L27.381 85.8367L27.3864 85.8476L28.2809 85.4004ZM27.6383 84.7441L27.1852 85.6356L27.1939 85.64L27.2027 85.6443L27.6383 84.7441ZM26.5514 84.4775L26.4599 85.4734L26.47 85.4742L26.5514 84.4775ZM20.5016 84.4775L20.5829 85.4743L20.593 85.4733L20.5016 84.4775ZM19.4078 84.7441L19.8491 85.6415L19.855 85.6386L19.4078 84.7441ZM18.7652 85.4004L17.8707 84.9531L17.8654 84.9641L18.7652 85.4004ZM18.7652 92.0381L17.8628 92.4691L17.8681 92.4799L18.7652 92.0381ZM19.4078 92.7217L18.932 93.6012L18.938 93.6044L19.4078 92.7217ZM22.149 94.2188V93.2188C21.1618 93.2188 20.3953 93.1501 19.8288 93.0289L19.6197 94.0068L19.4107 94.9847C20.1657 95.1462 21.0855 95.2188 22.149 95.2188V94.2188ZM19.6197 94.0068L19.8223 93.0276C19.3001 92.9195 18.9772 92.7362 18.7751 92.5341L18.068 93.2412L17.3609 93.9483C17.9062 94.4936 18.6177 94.8207 19.4171 94.9861L19.6197 94.0068ZM18.068 93.2412L18.7794 92.5385C18.5849 92.3416 18.3911 91.9999 18.2665 91.4184L17.2887 91.6279L16.3109 91.8375C16.487 92.6596 16.8127 93.3934 17.3565 93.944L18.068 93.2412ZM17.2887 91.6279L18.2678 91.4245C18.1414 90.8162 18.0699 89.978 18.0699 88.8867H17.0699H16.0699C16.0699 90.0468 16.1443 91.036 16.3096 91.8314L17.2887 91.6279ZM17.0699 88.8867H18.0699V88.6133H17.0699H16.0699V88.8867H17.0699ZM17.0699 88.6133H18.0699C18.0699 87.7118 18.1144 86.984 18.1963 86.4188L17.2066 86.2754L16.217 86.132C16.1166 86.8246 16.0699 87.6554 16.0699 88.6133H17.0699ZM17.2066 86.2754L18.1964 86.4178C18.2766 85.8608 18.4063 85.4757 18.5496 85.2212L17.6783 84.7305L16.807 84.2397C16.5037 84.7782 16.319 85.4231 16.2168 86.133L17.2066 86.2754ZM17.6783 84.7305L18.5496 85.2212C18.6854 84.9802 18.856 84.8144 19.0678 84.6984L18.5875 83.8213L18.1072 82.9442C17.5533 83.2475 17.1179 83.6877 16.807 84.2397L17.6783 84.7305ZM18.5875 83.8213L19.0634 84.7008C19.3117 84.5664 19.6687 84.4521 20.1676 84.3897L20.0436 83.3975L19.9195 82.4052C19.2518 82.4887 18.638 82.6569 18.1115 82.9418L18.5875 83.8213ZM20.0436 83.3975L20.1752 84.3888C20.7017 84.3188 21.357 84.2812 22.149 84.2812V83.2812V82.2812C21.3004 82.2812 20.5521 82.3211 19.9119 82.4062L20.0436 83.3975ZM22.149 83.2812V84.2812H24.9039V83.2812V82.2812H22.149V83.2812ZM24.9039 83.2812V84.2812C25.6959 84.2812 26.3513 84.3188 26.8777 84.3888L27.0094 83.3975L27.141 82.4062C26.5008 82.3211 25.7525 82.2812 24.9039 82.2812V83.2812ZM27.0094 83.3975L26.8853 84.3897C27.3845 84.4521 27.737 84.5662 27.9783 84.6984L28.4586 83.8213L28.9389 82.9442C28.4146 82.6571 27.801 82.4886 27.1334 82.4052L27.0094 83.3975ZM28.4586 83.8213L27.9826 84.7008C28.1985 84.8176 28.3693 84.9832 28.5033 85.2212L29.3746 84.7305L30.2459 84.2397C29.9333 83.6847 29.4934 83.2443 28.9345 82.9418L28.4586 83.8213ZM29.3746 84.7305L28.5033 85.2212C28.6467 85.4757 28.7763 85.8608 28.8565 86.4178L29.8463 86.2754L30.8361 86.133C30.734 85.4231 30.5492 84.7782 30.2459 84.2397L29.3746 84.7305ZM29.8463 86.2754L28.8566 86.4188C28.9385 86.984 28.983 87.7118 28.983 88.6133H29.983H30.983C30.983 87.6554 30.9363 86.8246 30.8359 86.132L29.8463 86.2754ZM29.983 88.6133H28.983V88.8867H29.983H30.983V88.6133H29.983ZM29.983 88.8867H28.983C28.983 89.9768 28.9094 90.8128 28.7796 91.4184L29.7574 91.6279L30.7352 91.8375C30.9062 91.0394 30.983 90.0479 30.983 88.8867H29.983ZM29.7574 91.6279L28.7783 91.4245C28.6584 92.0016 28.4659 92.3393 28.271 92.5341L28.9781 93.2412L29.6852 93.9483C30.2378 93.3958 30.5648 92.6579 30.7365 91.8314L29.7574 91.6279ZM28.9781 93.2412L28.2667 92.5385C28.0708 92.7368 27.7528 92.9195 27.2306 93.0276L27.4332 94.0068L27.6358 94.9861C28.4352 94.8207 29.1472 94.493 29.6896 93.944L28.9781 93.2412ZM27.4332 94.0068L27.2241 93.0289C26.6576 93.1501 25.8911 93.2188 24.9039 93.2188V94.2188V95.2188C25.9675 95.2188 26.8872 95.1462 27.6423 94.9847L27.4332 94.0068ZM24.9039 94.2188V93.2188H22.149V94.2188V95.2188H24.9039V94.2188ZM22.149 93.084V94.084H24.9039V93.084V92.084H22.149V93.084ZM24.9039 93.084V94.084C25.5758 94.084 26.1612 94.0606 26.6529 94.0105L26.5514 93.0156L26.4499 92.0208C26.0483 92.0618 25.5354 92.084 24.9039 92.084V93.084ZM26.5514 93.0156L26.6529 94.0105C27.1797 93.9567 27.6823 93.8348 28.1141 93.6012L27.6383 92.7217L27.1625 91.8421C27.0383 91.9093 26.8163 91.9834 26.4499 92.0208L26.5514 93.0156ZM27.6383 92.7217L28.1081 93.6044C28.5906 93.3476 28.9508 92.9556 29.1832 92.4691L28.2809 92.0381L27.3785 91.6071C27.3192 91.7312 27.251 91.795 27.1684 91.8389L27.6383 92.7217ZM28.2809 92.0381L29.1779 92.4799C29.3995 92.0302 29.5213 91.4948 29.5828 90.921L28.5885 90.8145L27.5942 90.7079C27.5463 91.155 27.463 91.4353 27.3838 91.5962L28.2809 92.0381ZM28.5885 90.8145L29.5828 90.921C29.6427 90.3623 29.6705 89.6811 29.6705 88.8867H28.6705H27.6705C27.6705 89.6418 27.6437 90.2458 27.5942 90.7079L28.5885 90.8145ZM28.6705 88.8867H29.6705V88.6133H28.6705H27.6705V88.8867H28.6705ZM28.6705 88.6133H29.6705C29.6705 87.7926 29.6427 87.0936 29.583 86.5262L28.5885 86.6309L27.594 86.7355C27.6436 87.2071 27.6705 87.8298 27.6705 88.6133H28.6705ZM28.5885 86.6309L29.583 86.5262C29.5219 85.946 29.4005 85.4037 29.1753 84.9532L28.2809 85.4004L27.3864 85.8476C27.462 85.9987 27.5457 86.2766 27.594 86.7355L28.5885 86.6309ZM28.2809 85.4004L29.1807 84.9641C28.9435 84.475 28.5726 84.0853 28.0738 83.844L27.6383 84.7441L27.2027 85.6443C27.2691 85.6764 27.3265 85.7242 27.381 85.8367L28.2809 85.4004ZM27.6383 84.7441L28.0913 83.8527C27.6586 83.6327 27.1568 83.5236 26.6327 83.4809L26.5514 84.4775L26.47 85.4742C26.8391 85.5044 27.062 85.573 27.1852 85.6356L27.6383 84.7441ZM26.5514 84.4775L26.6428 83.4817C26.1556 83.437 25.5738 83.416 24.9039 83.416V84.416V85.416C25.5374 85.416 26.0539 85.4361 26.4599 85.4733L26.5514 84.4775ZM24.9039 84.416V83.416H22.149V84.416V85.416H24.9039V84.416ZM22.149 84.416V83.416C21.4791 83.416 20.8973 83.437 20.4101 83.4817L20.5016 84.4775L20.593 85.4733C20.999 85.4361 21.5155 85.416 22.149 85.416V84.416ZM20.5016 84.4775L20.4202 83.4809C19.8954 83.5237 19.3946 83.6327 18.9606 83.8497L19.4078 84.7441L19.855 85.6386C19.9862 85.573 20.2145 85.5043 20.5829 85.4742L20.5016 84.4775ZM19.4078 84.7441L18.9665 83.8468C18.4752 84.0884 18.1101 84.4746 17.8708 84.9532L18.7652 85.4004L19.6597 85.8476C19.7212 85.7246 19.7844 85.6733 19.8491 85.6415L19.4078 84.7441ZM18.7652 85.4004L17.8654 84.9641C17.6489 85.4108 17.5307 85.9488 17.4699 86.5262L18.4645 86.6309L19.459 86.7355C19.5076 86.2738 19.5899 85.9916 19.665 85.8367L18.7652 85.4004ZM18.4645 86.6309L17.4699 86.5262C17.4102 87.0936 17.3824 87.7926 17.3824 88.6133H18.3824H19.3824C19.3824 87.8298 19.4093 87.2071 19.459 86.7355L18.4645 86.6309ZM18.3824 88.6133H17.3824V88.8867H18.3824H19.3824V88.6133H18.3824ZM18.3824 88.8867H17.3824C17.3824 89.6811 17.4103 90.3623 17.4701 90.921L18.4645 90.8145L19.4588 90.7079C19.4093 90.2458 19.3824 89.6418 19.3824 88.8867H18.3824ZM18.4645 90.8145L17.4701 90.921C17.5313 91.4919 17.6499 92.0231 17.8629 92.4691L18.7652 92.0381L19.6676 91.6071C19.5889 91.4424 19.507 91.1578 19.4588 90.7079L18.4645 90.8145ZM18.7652 92.0381L17.8681 92.4799C18.1027 92.9562 18.4573 93.3444 18.932 93.6012L19.4078 92.7217L19.8836 91.8421C19.8023 91.7981 19.7285 91.7306 19.6623 91.5962L18.7652 92.0381ZM19.4078 92.7217L18.938 93.6044C19.371 93.8349 19.8727 93.9566 20.4 94.0105L20.5016 93.0156L20.6031 92.0208C20.2372 91.9835 20.0098 91.9092 19.8777 91.8389L19.4078 92.7217ZM20.5016 93.0156L20.4 94.0105C20.8917 94.0606 21.4771 94.084 22.149 94.084V93.084V92.084C21.5176 92.084 21.0047 92.0618 20.6031 92.0208L20.5016 93.0156ZM33.6047 94H32.6047V95H33.6047V94ZM33.6047 83.5V82.5H32.6047V83.5H33.6047ZM45.4719 84.4023L44.7782 85.1227L44.7873 85.1313L45.4719 84.4023ZM46.2512 85.9404L45.2737 86.1518L45.2751 86.1581L46.2512 85.9404ZM46.2512 91.5049L45.2751 91.2873L45.2741 91.2922L46.2512 91.5049ZM45.4719 93.0566L46.1701 93.7725L46.1702 93.7724L45.4719 93.0566ZM43.927 93.8018L44.1231 94.7824L44.1296 94.781L43.927 93.8018ZM34.9172 92.8652H33.9172V93.8652H34.9172V92.8652ZM44.7746 85.5781L43.883 86.031L43.8874 86.0395L43.8919 86.048L44.7746 85.5781ZM44.132 84.9492L43.6907 85.8466L43.6995 85.8509L43.7083 85.855L44.132 84.9492ZM34.9172 84.6348V83.6348H33.9172V84.6348H34.9172ZM33.6047 94H34.6047V83.5H33.6047H32.6047V94H33.6047ZM33.6047 83.5V84.5H41.3977V83.5V82.5H33.6047V83.5ZM41.3977 83.5V84.5C42.39 84.5 43.1661 84.5601 43.7439 84.6677L43.927 83.6846L44.11 82.7015C43.3662 82.563 42.4561 82.5 41.3977 82.5V83.5ZM43.927 83.6846L43.7439 84.6677C44.2714 84.7659 44.5877 84.9392 44.7782 85.1227L45.4719 84.4023L46.1655 83.682C45.6178 83.1546 44.9041 82.8493 44.11 82.7015L43.927 83.6846ZM45.4719 84.4023L44.7873 85.1313C44.9699 85.3027 45.1562 85.6083 45.2738 86.1518L46.2512 85.9404L47.2286 85.7291C47.0544 84.9236 46.7213 84.2038 46.1564 83.6734L45.4719 84.4023ZM46.2512 85.9404L45.2751 86.1581C45.403 86.7316 45.4768 87.5409 45.4768 88.6133H46.4768H47.4768C47.4768 87.4708 47.4001 86.4982 47.2272 85.7228L46.2512 85.9404ZM46.4768 88.6133H45.4768V88.8867H46.4768H47.4768V88.6133H46.4768ZM46.4768 88.8867H45.4768C45.4768 89.9198 45.4034 90.712 45.2751 91.2873L46.2512 91.5049L47.2272 91.7225C47.3997 90.9489 47.4768 89.9956 47.4768 88.8867H46.4768ZM46.2512 91.5049L45.2741 91.2922C45.157 91.8297 44.9693 92.1499 44.7736 92.3409L45.4719 93.0566L46.1702 93.7724C46.7218 93.2342 47.0536 92.5199 47.2283 91.7176L46.2512 91.5049ZM45.4719 93.0566L44.7737 92.3408C44.5774 92.5321 44.2549 92.7127 43.7243 92.8225L43.927 93.8018L44.1296 94.781C44.9206 94.6173 45.628 94.3012 46.1701 93.7725L45.4719 93.0566ZM43.927 93.8018L43.7308 92.8212C43.1587 92.9356 42.3875 93 41.3977 93V94V95C42.4586 95 43.3736 94.9322 44.1231 94.7823L43.927 93.8018ZM41.3977 94V93H33.6047V94V95H41.3977V94ZM34.9172 92.8652V93.8652H41.3977V92.8652V91.8652H34.9172V92.8652ZM41.3977 92.8652V93.8652C42.2375 93.8652 42.9514 93.8258 43.5205 93.7371L43.3664 92.749L43.2123 91.761C42.788 91.8271 42.1893 91.8652 41.3977 91.8652V92.8652ZM43.3664 92.749L43.5205 93.7371C44.151 93.6387 44.7523 93.4063 45.2083 92.9503L44.5012 92.2432L43.7941 91.5361C43.7306 91.5996 43.5753 91.7044 43.2123 91.761L43.3664 92.749ZM44.5012 92.2432L45.2083 92.9503C45.6687 92.4898 45.9029 91.8678 46.0132 91.2222L45.0275 91.0537L44.0418 90.8852C43.9699 91.3061 43.8531 91.477 43.7941 91.5361L44.5012 92.2432ZM45.0275 91.0537L46.0132 91.2222C46.1182 90.6084 46.1643 89.822 46.1643 88.8867H45.1643H44.1643C44.1643 89.7744 44.1192 90.4326 44.0418 90.8852L45.0275 91.0537ZM45.1643 88.8867H46.1643V88.6133H45.1643H44.1643V88.8867H45.1643ZM45.1643 88.6133H46.1643C46.1643 87.8369 46.1364 87.1724 46.0761 86.6298L45.0822 86.7402L44.0883 86.8507C44.1374 87.2924 44.1643 87.8766 44.1643 88.6133H45.1643ZM45.0822 86.7402L46.0761 86.6298C46.0143 86.0733 45.8906 85.5465 45.6574 85.1083L44.7746 85.5781L43.8919 86.048C43.9594 86.1749 44.0408 86.4228 44.0883 86.8507L45.0822 86.7402ZM44.7746 85.5781L45.6662 85.1253C45.4228 84.6461 45.0473 84.2734 44.5557 84.0434L44.132 84.9492L43.7083 85.855C43.7818 85.8894 43.8347 85.9359 43.883 86.031L44.7746 85.5781ZM44.132 84.9492L44.5733 84.0519C44.1443 83.8409 43.6471 83.7353 43.1265 83.6928L43.0451 84.6895L42.9638 85.6861C43.3364 85.7166 43.5638 85.7841 43.6907 85.8466L44.132 84.9492ZM43.0451 84.6895L43.1265 83.6928C42.6437 83.6534 42.0655 83.6348 41.3977 83.6348V84.6348V85.6348C42.0332 85.6348 42.5533 85.6526 42.9638 85.6861L43.0451 84.6895ZM41.3977 84.6348V83.6348H34.9172V84.6348V85.6348H41.3977V84.6348ZM34.9172 84.6348H33.9172V92.8652H34.9172H35.9172V84.6348H34.9172ZM50.0711 94H49.0711V95H50.0711V94ZM50.0711 83.5V82.5H49.0711V83.5H50.0711ZM60.3797 83.5H61.3797V82.5H60.3797V83.5ZM60.3797 84.5938V85.5938H61.3797V84.5938H60.3797ZM51.3836 84.5938V83.5938H50.3836V84.5938H51.3836ZM51.3836 88.0938H50.3836V89.0938H51.3836V88.0938ZM60.0037 88.0938H61.0037V87.0938H60.0037V88.0938ZM60.0037 89.1875V90.1875H61.0037V89.1875H60.0037ZM51.3836 89.1875V88.1875H50.3836V89.1875H51.3836ZM51.3836 92.9062H50.3836V93.9062H51.3836V92.9062ZM60.5711 92.9062H61.5711V91.9062H60.5711V92.9062ZM60.5711 94V95H61.5711V94H60.5711ZM50.0711 94H51.0711V83.5H50.0711H49.0711V94H50.0711ZM50.0711 83.5V84.5H60.3797V83.5V82.5H50.0711V83.5ZM60.3797 83.5H59.3797V84.5938H60.3797H61.3797V83.5H60.3797ZM60.3797 84.5938V83.5938H51.3836V84.5938V85.5938H60.3797V84.5938ZM51.3836 84.5938H50.3836V88.0938H51.3836H52.3836V84.5938H51.3836ZM51.3836 88.0938V89.0938H60.0037V88.0938V87.0938H51.3836V88.0938ZM60.0037 88.0938H59.0037V89.1875H60.0037H61.0037V88.0938H60.0037ZM60.0037 89.1875V88.1875H51.3836V89.1875V90.1875H60.0037V89.1875ZM51.3836 89.1875H50.3836V92.9062H51.3836H52.3836V89.1875H51.3836ZM51.3836 92.9062V93.9062H60.5711V92.9062V91.9062H51.3836V92.9062ZM60.5711 92.9062H59.5711V94H60.5711H61.5711V92.9062H60.5711ZM60.5711 94V93H50.0711V94V95H60.5711V94ZM68.7988 86.2754L69.7885 86.4188L69.7886 86.4178L68.7988 86.2754ZM70.1797 83.8213L69.7037 82.9418L69.6994 82.9442L70.1797 83.8213ZM71.6357 83.3975L71.7598 84.3898L71.7674 84.3888L71.6357 83.3975ZM78.8682 83.418L78.7277 84.4081L78.7355 84.4091L78.8682 83.418ZM80.4268 83.9443L79.8676 84.7735L79.8787 84.7808L80.4268 83.9443ZM81.2881 85.0996L80.3437 85.4285L80.3446 85.4311L81.2881 85.0996ZM81.5547 87.1162V88.1162H82.5547V87.1162H81.5547ZM80.2422 87.1162H79.2422V88.1162H80.2422V87.1162ZM80.0645 85.5781L79.1123 85.8838L79.1134 85.8872L80.0645 85.5781ZM79.4629 84.7783L78.9546 85.6395L78.9608 85.6431L79.4629 84.7783ZM78.3213 84.4775L78.2367 85.474L78.246 85.4747L78.3213 84.4775ZM72.0938 84.4775L72.1751 85.4743L72.1852 85.4733L72.0938 84.4775ZM71 84.7441L71.4413 85.6415L71.4472 85.6386L71 84.7441ZM70.3574 85.4004L69.4629 84.9531L69.4576 84.9641L70.3574 85.4004ZM70.3574 92.0381L69.455 92.4691L69.4603 92.4799L70.3574 92.0381ZM71 92.7217L70.5242 93.6012L70.5302 93.6044L71 92.7217ZM79.4629 92.7559L78.982 91.879L78.976 91.8824L79.4629 92.7559ZM80.0645 91.9834L81.0143 92.296L81.0155 92.2925L80.0645 91.9834ZM80.2422 90.4521V89.4521H79.2422V90.4521H80.2422ZM81.5547 90.4521H82.5547V89.4521H81.5547V90.4521ZM80.4268 93.5967L80.9655 94.4391L80.968 94.4375L80.4268 93.5967ZM78.8682 94.0957L78.7424 93.1036L78.7415 93.1038L78.8682 94.0957ZM71.2119 94.0068L71.421 93.0289L71.4145 93.0276L71.2119 94.0068ZM69.6602 93.2412L68.9487 93.944L68.953 93.9483L69.6602 93.2412ZM68.8809 91.6279L67.9018 91.8314L67.9031 91.8375L68.8809 91.6279ZM68.6621 88.8867H69.6621V88.6133H68.6621H67.6621V88.8867H68.6621ZM68.6621 88.6133H69.6621C69.6621 87.7118 69.7066 86.984 69.7885 86.4188L68.7988 86.2754L67.8092 86.132C67.7088 86.8246 67.6621 87.6554 67.6621 88.6133H68.6621ZM68.7988 86.2754L69.7886 86.4178C69.8688 85.8608 69.9985 85.4757 70.1418 85.2212L69.2705 84.7305L68.3992 84.2397C68.0959 84.7782 67.9112 85.4231 67.809 86.133L68.7988 86.2754ZM69.2705 84.7305L70.1418 85.2212C70.2775 84.9802 70.4482 84.8144 70.66 84.6984L70.1797 83.8213L69.6994 82.9442C69.1455 83.2475 68.7101 83.6877 68.3992 84.2397L69.2705 84.7305ZM70.1797 83.8213L70.6556 84.7008C70.9039 84.5664 71.2609 84.4521 71.7598 84.3897L71.6357 83.3975L71.5117 82.4052C70.8439 82.4887 70.2302 82.6569 69.7037 82.9418L70.1797 83.8213ZM71.6357 83.3975L71.7674 84.3888C72.2939 84.3188 72.9492 84.2812 73.7412 84.2812V83.2812V82.2812C72.8926 82.2812 72.1443 82.3211 71.5041 82.4062L71.6357 83.3975ZM73.7412 83.2812V84.2812H76.4961V83.2812V82.2812H73.7412V83.2812ZM76.4961 83.2812V84.2812C77.4067 84.2812 78.1472 84.3257 78.7277 84.4081L78.8682 83.418L79.0086 82.4279C78.304 82.3279 77.4631 82.2812 76.4961 82.2812V83.2812ZM78.8682 83.418L78.7355 84.4091C79.2849 84.4826 79.6426 84.6217 79.8676 84.7734L80.4268 83.9443L80.9859 83.1153C80.427 82.7384 79.7457 82.5265 79.0008 82.4268L78.8682 83.418ZM80.4268 83.9443L79.8787 84.7808C80.0653 84.9031 80.2278 85.0957 80.3437 85.4285L81.2881 85.0996L82.2325 84.7708C81.9929 84.0827 81.5811 83.5051 80.9748 83.1079L80.4268 83.9443ZM81.2881 85.0996L80.3446 85.4311C80.47 85.7879 80.5547 86.3343 80.5547 87.1162H81.5547H82.5547C82.5547 86.2211 82.4617 85.4231 82.2315 84.7681L81.2881 85.0996ZM81.5547 87.1162V86.1162H80.2422V87.1162V88.1162H81.5547V87.1162ZM80.2422 87.1162H81.2422C81.2422 86.4148 81.1816 85.7803 81.0155 85.269L80.0645 85.5781L79.1134 85.8872C79.1842 86.1051 79.2422 86.496 79.2422 87.1162H80.2422ZM80.0645 85.5781L81.0166 85.2725C80.8374 84.7142 80.5004 84.2244 79.965 83.9135L79.4629 84.7783L78.9608 85.6431C78.9905 85.6604 79.0545 85.7038 79.1123 85.8838L80.0645 85.5781ZM79.4629 84.7783L79.9711 83.9171C79.5117 83.646 78.9625 83.5231 78.3965 83.4804L78.3213 84.4775L78.246 85.4747C78.6463 85.5049 78.8581 85.5826 78.9546 85.6395L79.4629 84.7783ZM78.3213 84.4775L78.4059 83.4811C77.8843 83.4368 77.2453 83.416 76.4961 83.416V84.416V85.416C77.2143 85.416 77.7921 85.4362 78.2367 85.474L78.3213 84.4775ZM76.4961 84.416V83.416H73.7412V84.416V85.416H76.4961V84.416ZM73.7412 84.416V83.416C73.0713 83.416 72.4895 83.437 72.0023 83.4817L72.0938 84.4775L72.1852 85.4733C72.5912 85.4361 73.1077 85.416 73.7412 85.416V84.416ZM72.0938 84.4775L72.0124 83.4809C71.4876 83.5237 70.9868 83.6327 70.5528 83.8497L71 84.7441L71.4472 85.6386C71.5783 85.573 71.8067 85.5043 72.1751 85.4742L72.0938 84.4775ZM71 84.7441L70.5587 83.8468C70.0674 84.0884 69.7023 84.4746 69.463 84.9532L70.3574 85.4004L71.2518 85.8476C71.3133 85.7246 71.3766 85.6733 71.4413 85.6415L71 84.7441ZM70.3574 85.4004L69.4576 84.9641C69.2411 85.4108 69.1229 85.9488 69.0621 86.5262L70.0566 86.6309L71.0511 86.7355C71.0997 86.2738 71.1821 85.9916 71.2572 85.8367L70.3574 85.4004ZM70.0566 86.6309L69.0621 86.5262C69.0024 87.0936 68.9746 87.7926 68.9746 88.6133H69.9746H70.9746C70.9746 87.8298 71.0015 87.2071 71.0511 86.7355L70.0566 86.6309ZM69.9746 88.6133H68.9746V88.8867H69.9746H70.9746V88.6133H69.9746ZM69.9746 88.8867H68.9746C68.9746 89.6811 69.0025 90.3623 69.0623 90.921L70.0566 90.8145L71.0509 90.7079C71.0014 90.2458 70.9746 89.6418 70.9746 88.8867H69.9746ZM70.0566 90.8145L69.0623 90.921C69.1235 91.4919 69.2421 92.0231 69.4551 92.4691L70.3574 92.0381L71.2598 91.6071C71.1811 91.4424 71.0992 91.1578 71.0509 90.7079L70.0566 90.8145ZM70.3574 92.0381L69.4603 92.4799C69.6949 92.9562 70.0495 93.3444 70.5242 93.6012L71 92.7217L71.4758 91.8421C71.3945 91.7981 71.3207 91.7306 71.2545 91.5962L70.3574 92.0381ZM71 92.7217L70.5302 93.6044C70.9632 93.8349 71.4649 93.9566 71.9922 94.0105L72.0938 93.0156L72.1953 92.0208C71.8294 91.9835 71.6019 91.9092 71.4698 91.8389L71 92.7217ZM72.0938 93.0156L71.9922 94.0105C72.4839 94.0606 73.0693 94.084 73.7412 94.084V93.084V92.084C73.1098 92.084 72.5968 92.0618 72.1953 92.0208L72.0938 93.0156ZM73.7412 93.084V94.084H76.4961V93.084V92.084H73.7412V93.084ZM76.4961 93.084V94.084C77.2419 94.084 77.8741 94.0678 78.3872 94.034L78.3213 93.0361L78.2554 92.0383C77.8023 92.0682 77.2178 92.084 76.4961 92.084V93.084ZM78.3213 93.0361L78.3872 94.034C78.9482 93.9969 79.4927 93.8841 79.9498 93.6293L79.4629 92.7559L78.976 91.8824C78.8771 91.9375 78.6606 92.0115 78.2554 92.0383L78.3213 93.0361ZM79.4629 92.7559L79.9437 93.6327C80.4869 93.3348 80.8315 92.8515 81.0143 92.296L80.0645 91.9834L79.1146 91.6708C79.0604 91.8353 79.0039 91.867 78.9821 91.879L79.4629 92.7559ZM80.0645 91.9834L81.0155 92.2925C81.1815 91.7817 81.2422 91.1499 81.2422 90.4521H80.2422H79.2422C79.2422 91.0669 79.1844 91.4559 79.1134 91.6743L80.0645 91.9834ZM80.2422 90.4521V91.4521H81.5547V90.4521V89.4521H80.2422V90.4521ZM81.5547 90.4521H80.5547C80.5547 91.2347 80.4698 91.7773 80.3456 92.1277L81.2881 92.4619L82.2306 92.7961C82.4618 92.1439 82.5547 91.3467 82.5547 90.4521H81.5547ZM81.2881 92.4619L80.3456 92.1277C80.2319 92.4485 80.0722 92.6356 79.8855 92.7558L80.4268 93.5967L80.968 94.4375C81.5742 94.0473 81.9888 93.4779 82.2306 92.7961L81.2881 92.4619ZM80.4268 93.5967L79.888 92.7542C79.6607 92.8996 79.2978 93.0332 78.7424 93.1036L78.8682 94.0957L78.9939 95.0878C79.7328 94.9941 80.409 94.7951 80.9655 94.4391L80.4268 93.5967ZM78.8682 94.0957L78.7415 93.1038C78.155 93.1786 77.4096 93.2188 76.4961 93.2188V94.2188V95.2188C77.4602 95.2188 78.2962 95.1768 78.9948 95.0877L78.8682 94.0957ZM76.4961 94.2188V93.2188H73.7412V94.2188V95.2188H76.4961V94.2188ZM73.7412 94.2188V93.2188C72.754 93.2188 71.9875 93.1501 71.421 93.0289L71.2119 94.0068L71.0028 94.9847C71.7579 95.1462 72.6777 95.2188 73.7412 95.2188V94.2188ZM71.2119 94.0068L71.4145 93.0276C70.8923 92.9195 70.5694 92.7362 70.3673 92.5341L69.6602 93.2412L68.953 93.9483C69.4984 94.4936 70.2099 94.8207 71.0093 94.9861L71.2119 94.0068ZM69.6602 93.2412L70.3716 92.5385C70.1771 92.3416 69.9833 91.9999 69.8587 91.4184L68.8809 91.6279L67.9031 91.8375C68.0792 92.6596 68.4049 93.3934 68.9487 93.944L69.6602 93.2412ZM68.8809 91.6279L69.8599 91.4245C69.7335 90.8162 69.6621 89.978 69.6621 88.8867H68.6621H67.6621C67.6621 90.0468 67.7365 91.036 67.9018 91.8314L68.8809 91.6279ZM87.2818 94.0068L87.4909 93.0289L87.4844 93.0276L87.2818 94.0068ZM85.7301 93.2412L85.0186 93.944L85.023 93.9483L85.7301 93.2412ZM84.9508 91.6279L83.9717 91.8314L83.973 91.8375L84.9508 91.6279ZM84.8688 86.2754L85.8584 86.4188L85.8586 86.4178L84.8688 86.2754ZM86.2496 83.8213L85.7737 82.9418L85.7693 82.9442L86.2496 83.8213ZM87.7057 83.3975L87.8297 84.3898L87.8373 84.3888L87.7057 83.3975ZM94.6715 83.3975L94.5398 84.3888L94.5475 84.3897L94.6715 83.3975ZM96.1207 83.8213L95.6404 84.6984L95.6448 84.7008L96.1207 83.8213ZM97.5084 86.2754L96.5186 86.4178L96.5187 86.4188L97.5084 86.2754ZM97.4195 91.6279L96.4417 91.4184L96.4404 91.4245L97.4195 91.6279ZM96.6402 93.2412L95.9331 92.5341L95.9288 92.5385L96.6402 93.2412ZM95.0953 94.0068L94.8927 93.0276L94.8862 93.0289L95.0953 94.0068ZM94.2135 93.0156L94.112 92.0208L94.2135 93.0156ZM95.3004 92.7217L94.8305 91.8389L94.8246 91.8421L95.3004 92.7217ZM95.943 92.0381L95.0458 91.5962L95.0406 91.6071L95.943 92.0381ZM95.943 85.4004L95.0431 85.8367L95.0485 85.8476L95.943 85.4004ZM95.3004 84.7441L94.8473 85.6356L94.856 85.64L94.8648 85.6443L95.3004 84.7441ZM94.2135 84.4775L94.122 85.4734L94.1321 85.4742L94.2135 84.4775ZM88.1637 84.4775L88.245 85.4743L88.2551 85.4733L88.1637 84.4775ZM87.0699 84.7441L87.5113 85.6415L87.5171 85.6386L87.0699 84.7441ZM86.4273 85.4004L85.5329 84.9531L85.5275 84.9641L86.4273 85.4004ZM86.4273 92.0381L85.5249 92.4691L85.5303 92.4799L86.4273 92.0381ZM87.0699 92.7217L86.5941 93.6012L86.6001 93.6044L87.0699 92.7217ZM89.8111 94.2188V93.2188C88.8239 93.2188 88.0574 93.1501 87.4909 93.0289L87.2818 94.0068L87.0728 94.9847C87.8279 95.1462 88.7476 95.2188 89.8111 95.2188V94.2188ZM87.2818 94.0068L87.4844 93.0276C86.9622 92.9195 86.6393 92.7362 86.4372 92.5341L85.7301 93.2412L85.023 93.9483C85.5683 94.4936 86.2799 94.8207 87.0792 94.9861L87.2818 94.0068ZM85.7301 93.2412L86.4415 92.5385C86.247 92.3416 86.0532 91.9999 85.9286 91.4184L84.9508 91.6279L83.973 91.8375C84.1492 92.6596 84.4748 93.3934 85.0186 93.944L85.7301 93.2412ZM84.9508 91.6279L85.9299 91.4245C85.8035 90.8162 85.732 89.978 85.732 88.8867H84.732H83.732C83.732 90.0468 83.8064 91.036 83.9717 91.8314L84.9508 91.6279ZM84.732 88.8867H85.732V88.6133H84.732H83.732V88.8867H84.732ZM84.732 88.6133H85.732C85.732 87.7118 85.7765 86.984 85.8584 86.4188L84.8688 86.2754L83.8791 86.132C83.7787 86.8246 83.732 87.6554 83.732 88.6133H84.732ZM84.8688 86.2754L85.8586 86.4178C85.9387 85.8608 86.0684 85.4757 86.2117 85.2212L85.3404 84.7305L84.4691 84.2397C84.1659 84.7782 83.9811 85.4231 83.8789 86.133L84.8688 86.2754ZM85.3404 84.7305L86.2117 85.2212C86.3475 84.9802 86.5182 84.8144 86.7299 84.6984L86.2496 83.8213L85.7693 82.9442C85.2154 83.2475 84.78 83.6877 84.4691 84.2397L85.3404 84.7305ZM86.2496 83.8213L86.7256 84.7008C86.9738 84.5664 87.3308 84.4521 87.8297 84.3897L87.7057 83.3975L87.5816 82.4052C86.9139 82.4887 86.3002 82.6569 85.7737 82.9418L86.2496 83.8213ZM87.7057 83.3975L87.8373 84.3888C88.3638 84.3188 89.0191 84.2812 89.8111 84.2812V83.2812V82.2812C88.9625 82.2812 88.2142 82.3211 87.574 82.4062L87.7057 83.3975ZM89.8111 83.2812V84.2812H92.566V83.2812V82.2812H89.8111V83.2812ZM92.566 83.2812V84.2812C93.358 84.2812 94.0134 84.3188 94.5398 84.3888L94.6715 83.3975L94.8031 82.4062C94.1629 82.3211 93.4146 82.2812 92.566 82.2812V83.2812ZM94.6715 83.3975L94.5475 84.3897C95.0466 84.4521 95.3991 84.5662 95.6404 84.6984L96.1207 83.8213L96.601 82.9442C96.0767 82.6571 95.4631 82.4886 94.7955 82.4052L94.6715 83.3975ZM96.1207 83.8213L95.6448 84.7008C95.8606 84.8176 96.0314 84.9832 96.1654 85.2212L97.0367 84.7305L97.908 84.2397C97.5954 83.6847 97.1555 83.2443 96.5967 82.9418L96.1207 83.8213ZM97.0367 84.7305L96.1654 85.2212C96.3088 85.4757 96.4384 85.8608 96.5186 86.4178L97.5084 86.2754L98.4982 86.133C98.3961 85.4231 98.2113 84.7782 97.908 84.2397L97.0367 84.7305ZM97.5084 86.2754L96.5187 86.4188C96.6006 86.984 96.6451 87.7118 96.6451 88.6133H97.6451H98.6451C98.6451 87.6554 98.5984 86.8246 98.4981 86.132L97.5084 86.2754ZM97.6451 88.6133H96.6451V88.8867H97.6451H98.6451V88.6133H97.6451ZM97.6451 88.8867H96.6451C96.6451 89.9768 96.5715 90.8128 96.4417 91.4184L97.4195 91.6279L98.3973 91.8375C98.5683 91.0394 98.6451 90.0479 98.6451 88.8867H97.6451ZM97.4195 91.6279L96.4404 91.4245C96.3205 92.0016 96.128 92.3393 95.9331 92.5341L96.6402 93.2412L97.3473 93.9483C97.8999 93.3958 98.2269 92.6579 98.3986 91.8314L97.4195 91.6279ZM96.6402 93.2412L95.9288 92.5385C95.7329 92.7368 95.4149 92.9195 94.8927 93.0276L95.0953 94.0068L95.2979 94.9861C96.0973 94.8207 96.8093 94.493 97.3517 93.944L96.6402 93.2412ZM95.0953 94.0068L94.8862 93.0289C94.3197 93.1501 93.5533 93.2188 92.566 93.2188V94.2188V95.2188C93.6296 95.2188 94.5493 95.1462 95.3044 94.9847L95.0953 94.0068ZM92.566 94.2188V93.2188H89.8111V94.2188V95.2188H92.566V94.2188ZM89.8111 93.084V94.084H92.566V93.084V92.084H89.8111V93.084ZM92.566 93.084V94.084C93.2379 94.084 93.8233 94.0606 94.315 94.0105L94.2135 93.0156L94.112 92.0208C93.7104 92.0618 93.1975 92.084 92.566 92.084V93.084ZM94.2135 93.0156L94.315 94.0105C94.8418 93.9567 95.3444 93.8348 95.7762 93.6012L95.3004 92.7217L94.8246 91.8421C94.7004 91.9093 94.4784 91.9834 94.112 92.0208L94.2135 93.0156ZM95.3004 92.7217L95.7702 93.6044C96.2527 93.3476 96.6129 92.9556 96.8453 92.4691L95.943 92.0381L95.0406 91.6071C94.9813 91.7312 94.9132 91.795 94.8305 91.8389L95.3004 92.7217ZM95.943 92.0381L96.8401 92.4799C97.0616 92.0302 97.1834 91.4948 97.2449 90.921L96.2506 90.8145L95.2563 90.7079C95.2084 91.155 95.1252 91.4353 95.0459 91.5962L95.943 92.0381ZM96.2506 90.8145L97.2449 90.921C97.3048 90.3623 97.3326 89.6811 97.3326 88.8867H96.3326H95.3326C95.3326 89.6418 95.3058 90.2458 95.2563 90.7079L96.2506 90.8145ZM96.3326 88.8867H97.3326V88.6133H96.3326H95.3326V88.8867H96.3326ZM96.3326 88.6133H97.3326C97.3326 87.7926 97.3048 87.0936 97.2451 86.5262L96.2506 86.6309L95.2561 86.7355C95.3057 87.2071 95.3326 87.8298 95.3326 88.6133H96.3326ZM96.2506 86.6309L97.2451 86.5262C97.184 85.946 97.0626 85.4037 96.8374 84.9532L95.943 85.4004L95.0485 85.8476C95.1241 85.9987 95.2078 86.2766 95.2561 86.7355L96.2506 86.6309ZM95.943 85.4004L96.8428 84.9641C96.6056 84.475 96.2347 84.0853 95.736 83.844L95.3004 84.7441L94.8648 85.6443C94.9312 85.6764 94.9886 85.7242 95.0432 85.8367L95.943 85.4004ZM95.3004 84.7441L95.7534 83.8527C95.3207 83.6327 94.8189 83.5236 94.2948 83.4809L94.2135 84.4775L94.1321 85.4742C94.5012 85.5044 94.7241 85.573 94.8473 85.6356L95.3004 84.7441ZM94.2135 84.4775L94.3049 83.4817C93.8177 83.437 93.2359 83.416 92.566 83.416V84.416V85.416C93.1995 85.416 93.716 85.4361 94.122 85.4733L94.2135 84.4775ZM92.566 84.416V83.416H89.8111V84.416V85.416H92.566V84.416ZM89.8111 84.416V83.416C89.1413 83.416 88.5594 83.437 88.0722 83.4817L88.1637 84.4775L88.2551 85.4733C88.6611 85.4361 89.1776 85.416 89.8111 85.416V84.416ZM88.1637 84.4775L88.0823 83.4809C87.5575 83.5237 87.0567 83.6327 86.6227 83.8497L87.0699 84.7441L87.5171 85.6386C87.6483 85.573 87.8766 85.5043 88.245 85.4742L88.1637 84.4775ZM87.0699 84.7441L86.6286 83.8468C86.1373 84.0884 85.7722 84.4746 85.5329 84.9532L86.4273 85.4004L87.3218 85.8476C87.3833 85.7246 87.4465 85.6733 87.5112 85.6415L87.0699 84.7441ZM86.4273 85.4004L85.5275 84.9641C85.311 85.4108 85.1928 85.9488 85.1321 86.5262L86.1266 86.6309L87.1211 86.7355C87.1697 86.2738 87.252 85.9916 87.3272 85.8367L86.4273 85.4004ZM86.1266 86.6309L85.1321 86.5262C85.0723 87.0936 85.0445 87.7926 85.0445 88.6133H86.0445H87.0445C87.0445 87.8298 87.0714 87.2071 87.1211 86.7355L86.1266 86.6309ZM86.0445 88.6133H85.0445V88.8867H86.0445H87.0445V88.6133H86.0445ZM86.0445 88.8867H85.0445C85.0445 89.6811 85.0724 90.3623 85.1323 90.921L86.1266 90.8145L87.1209 90.7079C87.0714 90.2458 87.0445 89.6418 87.0445 88.8867H86.0445ZM86.1266 90.8145L85.1323 90.921C85.1934 91.4919 85.312 92.0231 85.525 92.4691L86.4273 92.0381L87.3297 91.6071C87.251 91.4424 87.1691 91.1578 87.1209 90.7079L86.1266 90.8145ZM86.4273 92.0381L85.5303 92.4799C85.7649 92.9562 86.1194 93.3444 86.5941 93.6012L87.0699 92.7217L87.5457 91.8421C87.4644 91.7981 87.3906 91.7306 87.3244 91.5962L86.4273 92.0381ZM87.0699 92.7217L86.6001 93.6044C87.0331 93.8349 87.5348 93.9566 88.0622 94.0105L88.1637 93.0156L88.2652 92.0208C87.8993 91.9835 87.6719 91.9092 87.5398 91.8389L87.0699 92.7217ZM88.1637 93.0156L88.0622 94.0105C88.5538 94.0606 89.1392 94.084 89.8111 94.084V93.084V92.084C89.1797 92.084 88.6668 92.0618 88.2652 92.0208L88.1637 93.0156ZM101.239 94H100.239V95H101.239V94ZM101.239 83.5V82.5H100.239V83.5H101.239ZM111.138 83.5H112.138V82.5H111.138V83.5ZM111.138 84.5938V85.5938H112.138V84.5938H111.138ZM102.552 84.5938V83.5938H101.552V84.5938H102.552ZM102.552 88.0938H101.552V89.0938H102.552V88.0938ZM110.748 88.0938H111.748V87.0938H110.748V88.0938ZM110.748 89.1875V90.1875H111.748V89.1875H110.748ZM102.552 89.1875V88.1875H101.552V89.1875H102.552ZM102.552 94V95H103.552V94H102.552ZM101.239 94H102.239V83.5H101.239H100.239V94H101.239ZM101.239 83.5V84.5H111.138V83.5V82.5H101.239V83.5ZM111.138 83.5H110.138V84.5938H111.138H112.138V83.5H111.138ZM111.138 84.5938V83.5938H102.552V84.5938V85.5938H111.138V84.5938ZM102.552 84.5938H101.552V88.0938H102.552H103.552V84.5938H102.552ZM102.552 88.0938V89.0938H110.748V88.0938V87.0938H102.552V88.0938ZM110.748 88.0938H109.748V89.1875H110.748H111.748V88.0938H110.748ZM110.748 89.1875V88.1875H102.552V89.1875V90.1875H110.748V89.1875ZM102.552 89.1875H101.552V94H102.552H103.552V89.1875H102.552ZM102.552 94V93H101.239V94V95H102.552V94ZM114.452 94H113.452V95H114.452V94ZM114.452 83.5V82.5H113.452V83.5H114.452ZM124.761 83.5H125.761V82.5H124.761V83.5ZM124.761 84.5938V85.5938H125.761V84.5938H124.761ZM115.764 84.5938V83.5938H114.764V84.5938H115.764ZM115.764 88.0938H114.764V89.0938H115.764V88.0938ZM124.385 88.0938H125.385V87.0938H124.385V88.0938ZM124.385 89.1875V90.1875H125.385V89.1875H124.385ZM115.764 89.1875V88.1875H114.764V89.1875H115.764ZM115.764 92.9062H114.764V93.9062H115.764V92.9062ZM124.952 92.9062H125.952V91.9062H124.952V92.9062ZM124.952 94V95H125.952V94H124.952ZM114.452 94H115.452V83.5H114.452H113.452V94H114.452ZM114.452 83.5V84.5H124.761V83.5V82.5H114.452V83.5ZM124.761 83.5H123.761V84.5938H124.761H125.761V83.5H124.761ZM124.761 84.5938V83.5938H115.764V84.5938V85.5938H124.761V84.5938ZM115.764 84.5938H114.764V88.0938H115.764H116.764V84.5938H115.764ZM115.764 88.0938V89.0938H124.385V88.0938V87.0938H115.764V88.0938ZM124.385 88.0938H123.385V89.1875H124.385H125.385V88.0938H124.385ZM124.385 89.1875V88.1875H115.764V89.1875V90.1875H124.385V89.1875ZM115.764 89.1875H114.764V92.9062H115.764H116.764V89.1875H115.764ZM115.764 92.9062V93.9062H124.952V92.9062V91.9062H115.764V92.9062ZM124.952 92.9062H123.952V94H124.952H125.952V92.9062H124.952ZM124.952 94V93H114.452V94V95H124.952V94ZM128.102 94H127.102V95H128.102V94ZM128.102 83.5V82.5H127.102V83.5H128.102ZM138.411 83.5H139.411V82.5H138.411V83.5ZM138.411 84.5938V85.5938H139.411V84.5938H138.411ZM129.414 84.5938V83.5938H128.414V84.5938H129.414ZM129.414 88.0938H128.414V89.0938H129.414V88.0938ZM138.035 88.0938H139.035V87.0938H138.035V88.0938ZM138.035 89.1875V90.1875H139.035V89.1875H138.035ZM129.414 89.1875V88.1875H128.414V89.1875H129.414ZM129.414 92.9062H128.414V93.9062H129.414V92.9062ZM138.602 92.9062H139.602V91.9062H138.602V92.9062ZM138.602 94V95H139.602V94H138.602ZM128.102 94H129.102V83.5H128.102H127.102V94H128.102ZM128.102 83.5V84.5H138.411V83.5V82.5H128.102V83.5ZM138.411 83.5H137.411V84.5938H138.411H139.411V83.5H138.411ZM138.411 84.5938V83.5938H129.414V84.5938V85.5938H138.411V84.5938ZM129.414 84.5938H128.414V88.0938H129.414H130.414V84.5938H129.414ZM129.414 88.0938V89.0938H138.035V88.0938V87.0938H129.414V88.0938ZM138.035 88.0938H137.035V89.1875H138.035H139.035V88.0938H138.035ZM138.035 89.1875V88.1875H129.414V89.1875V90.1875H138.035V89.1875ZM129.414 89.1875H128.414V92.9062H129.414H130.414V89.1875H129.414ZM129.414 92.9062V93.9062H138.602V92.9062V91.9062H129.414V92.9062ZM138.602 92.9062H137.602V94H138.602H139.602V92.9062H138.602ZM138.602 94V93H128.102V94V95H138.602V94Z" fill="#6350A3" mask="url(#path-5-outside-1_113_320)"/>
</svg>
