<svg width="48" height="48" viewBox="0 0 48 48" fill="none" xmlns="http://www.w3.org/2000/svg">
<mask id="mask0_80_129" style="mask-type:alpha" maskUnits="userSpaceOnUse" x="0" y="0" width="48" height="48">
<rect width="48" height="48" fill="#D9D9D9"/>
</mask>
<g mask="url(#mask0_80_129)">
<path d="M6.35 39.65C4.78333 38.0833 4 36.2 4 34C4 31.8 4.78333 29.9167 6.35 28.35C7.91667 26.7833 9.8 26 12 26C12.7667 26 13.475 26.0917 14.125 26.275C14.775 26.4583 15.4 26.7333 16 27.1V10L40 6V30C40 32.2 39.2167 34.0833 37.65 35.65C36.0833 37.2167 34.2 38 32 38C29.8 38 27.9167 37.2167 26.35 35.65C24.7833 34.0833 24 32.2 24 30C24 27.8 24.7833 25.9167 26.35 24.35C27.9167 22.7833 29.8 22 32 22C32.7667 22 33.475 22.0917 34.125 22.275C34.775 22.4583 35.4 22.7333 36 23.1V14.85L20 18V34C20 36.2 19.2167 38.0833 17.65 39.65C16.0833 41.2167 14.2 42 12 42C9.8 42 7.91667 41.2167 6.35 39.65Z" fill="#7C7D7F"/>
</g>
</svg>
