<svg width="48" height="48" viewBox="0 0 48 48" fill="none" xmlns="http://www.w3.org/2000/svg">
<mask id="mask0_80_135" style="mask-type:alpha" maskUnits="userSpaceOnUse" x="0" y="0" width="48" height="48">
<rect width="48" height="48" fill="#D9D9D9"/>
</mask>
<g mask="url(#mask0_80_135)">
<path d="M8 32V2H26V11C26 11.9 26.275 12.7167 26.825 13.45C27.375 14.1833 28.0833 14.6667 28.95 14.9L34.2 16.35C35.9 16.8167 37.2917 17.7583 38.375 19.175C39.4583 20.5917 40 22.2 40 24V32H8ZM12 28H36V24C36 23.1 35.725 22.3083 35.175 21.625C34.625 20.9417 33.9167 20.4667 33.05 20.2L27.8 18.7C26.6 18.3333 25.55 17.7417 24.65 16.925C23.75 16.1083 23.0667 15.1333 22.6 14H19C18.7333 14 18.5 13.9 18.3 13.7C18.1 13.5 18 13.2667 18 13C18 12.7333 18.1 12.5 18.3 12.3C18.5 12.1 18.7333 12 19 12H22.2C22.1333 11.6 22.0917 11.2667 22.075 11C22.0583 10.7333 22.0333 10.4 22 10H19C18.7333 10 18.5 9.9 18.3 9.7C18.1 9.5 18 9.26667 18 9C18 8.73333 18.1 8.5 18.3 8.3C18.5 8.1 18.7333 8 19 8H22V6H12V28ZM10 46C8.33333 46 6.91667 45.4167 5.75 44.25C4.58333 43.0833 4 41.6667 4 40C4 38.3333 4.58333 36.9167 5.75 35.75C6.91667 34.5833 8.33333 34 10 34C11.6667 34 13.0833 34.5833 14.25 35.75C15.4167 36.9167 16 38.3333 16 40C16 41.6667 15.4167 43.0833 14.25 44.25C13.0833 45.4167 11.6667 46 10 46ZM10 42C10.5667 42 11.0417 41.8083 11.425 41.425C11.8083 41.0417 12 40.5667 12 40C12 39.4333 11.8083 38.9583 11.425 38.575C11.0417 38.1917 10.5667 38 10 38C9.43333 38 8.95833 38.1917 8.575 38.575C8.19167 38.9583 8 39.4333 8 40C8 40.5667 8.19167 41.0417 8.575 41.425C8.95833 41.8083 9.43333 42 10 42ZM38 46C36.3333 46 34.9167 45.4167 33.75 44.25C32.5833 43.0833 32 41.6667 32 40C32 38.3333 32.5833 36.9167 33.75 35.75C34.9167 34.5833 36.3333 34 38 34C39.6667 34 41.0833 34.5833 42.25 35.75C43.4167 36.9167 44 38.3333 44 40C44 41.6667 43.4167 43.0833 42.25 44.25C41.0833 45.4167 39.6667 46 38 46ZM38 42C38.5667 42 39.0417 41.8083 39.425 41.425C39.8083 41.0417 40 40.5667 40 40C40 39.4333 39.8083 38.9583 39.425 38.575C39.0417 38.1917 38.5667 38 38 38C37.4333 38 36.9583 38.1917 36.575 38.575C36.1917 38.9583 36 39.4333 36 40C36 40.5667 36.1917 41.0417 36.575 41.425C36.9583 41.8083 37.4333 42 38 42ZM24 46C22.3333 46 20.9167 45.4167 19.75 44.25C18.5833 43.0833 18 41.6667 18 40C18 38.3333 18.5833 36.9167 19.75 35.75C20.9167 34.5833 22.3333 34 24 34C25.6667 34 27.0833 34.5833 28.25 35.75C29.4167 36.9167 30 38.3333 30 40C30 41.6667 29.4167 43.0833 28.25 44.25C27.0833 45.4167 25.6667 46 24 46ZM24 42C24.5667 42 25.0417 41.8083 25.425 41.425C25.8083 41.0417 26 40.5667 26 40C26 39.4333 25.8083 38.9583 25.425 38.575C25.0417 38.1917 24.5667 38 24 38C23.4333 38 22.9583 38.1917 22.575 38.575C22.1917 38.9583 22 39.4333 22 40C22 40.5667 22.1917 41.0417 22.575 41.425C22.9583 41.8083 23.4333 42 24 42Z" fill="#7C7D7F"/>
</g>
</svg>
